G04 #@! TF.GenerationSoftware,KiCad,Pcbnew,7.0.9*
G04 #@! TF.CreationDate,2024-04-18T23:25:52+05:30*
G04 #@! TF.ProjectId,Battery-psu,42617474-6572-4792-9d70-73752e6b6963,rev?*
G04 #@! TF.SameCoordinates,Original*
G04 #@! TF.FileFunction,Copper,L2,Bot*
G04 #@! TF.FilePolarity,Positive*
%FSLAX46Y46*%
G04 Gerber Fmt 4.6, Leading zero omitted, Abs format (unit mm)*
G04 Created by KiCad (PCBNEW 7.0.9) date 2024-04-18 23:25:52*
%MOMM*%
%LPD*%
G01*
G04 APERTURE LIST*
G04 Aperture macros list*
%AMRoundRect*
0 Rectangle with rounded corners*
0 $1 Rounding radius*
0 $2 $3 $4 $5 $6 $7 $8 $9 X,Y pos of 4 corners*
0 Add a 4 corners polygon primitive as box body*
4,1,4,$2,$3,$4,$5,$6,$7,$8,$9,$2,$3,0*
0 Add four circle primitives for the rounded corners*
1,1,$1+$1,$2,$3*
1,1,$1+$1,$4,$5*
1,1,$1+$1,$6,$7*
1,1,$1+$1,$8,$9*
0 Add four rect primitives between the rounded corners*
20,1,$1+$1,$2,$3,$4,$5,0*
20,1,$1+$1,$4,$5,$6,$7,0*
20,1,$1+$1,$6,$7,$8,$9,0*
20,1,$1+$1,$8,$9,$2,$3,0*%
G04 Aperture macros list end*
G04 #@! TA.AperFunction,ComponentPad*
%ADD10R,3.500000X3.500000*%
G04 #@! TD*
G04 #@! TA.AperFunction,ComponentPad*
%ADD11C,3.500000*%
G04 #@! TD*
G04 #@! TA.AperFunction,ComponentPad*
%ADD12O,1.700000X2.000000*%
G04 #@! TD*
G04 #@! TA.AperFunction,ComponentPad*
%ADD13RoundRect,0.250000X0.600000X0.750000X-0.600000X0.750000X-0.600000X-0.750000X0.600000X-0.750000X0*%
G04 #@! TD*
G04 #@! TA.AperFunction,ViaPad*
%ADD14C,0.800000*%
G04 #@! TD*
G04 #@! TA.AperFunction,ViaPad*
%ADD15C,5.500000*%
G04 #@! TD*
G04 #@! TA.AperFunction,ViaPad*
%ADD16C,0.650000*%
G04 #@! TD*
G04 #@! TA.AperFunction,Conductor*
%ADD17C,0.250000*%
G04 #@! TD*
G04 #@! TA.AperFunction,Conductor*
%ADD18C,0.750000*%
G04 #@! TD*
G04 #@! TA.AperFunction,Conductor*
%ADD19C,1.500000*%
G04 #@! TD*
G04 #@! TA.AperFunction,Conductor*
%ADD20C,0.500000*%
G04 #@! TD*
G04 APERTURE END LIST*
D10*
X193480000Y-95758000D03*
D11*
X121480000Y-95758000D03*
D10*
X121480000Y-74200000D03*
D11*
X193480000Y-74200000D03*
D12*
X177750000Y-58925000D03*
D13*
X180250000Y-58925000D03*
D12*
X186550000Y-58925000D03*
D13*
X189050000Y-58925000D03*
D12*
X156000000Y-58950000D03*
D13*
X158500000Y-58950000D03*
D12*
X168950000Y-58967000D03*
D13*
X171450000Y-58967000D03*
D12*
X126500000Y-58925000D03*
D13*
X129000000Y-58925000D03*
D12*
X146500000Y-58975000D03*
D13*
X149000000Y-58975000D03*
D14*
X132080000Y-58674000D03*
X133604000Y-57404000D03*
X135382000Y-55880000D03*
X139192000Y-56388000D03*
X136398000Y-57404000D03*
X140208000Y-57404000D03*
X152146000Y-58928000D03*
X152908000Y-57912000D03*
X151130000Y-59690000D03*
X148844000Y-61214000D03*
X141224000Y-61976000D03*
X144272000Y-61214000D03*
X143002000Y-60198000D03*
X137668000Y-61722000D03*
X134620000Y-61976000D03*
X156718000Y-60960000D03*
X156972000Y-57150000D03*
X160020000Y-57658000D03*
X154178000Y-57404000D03*
X208534000Y-126238000D03*
X201422000Y-133350000D03*
X197866000Y-131064000D03*
X199644000Y-124968000D03*
X204216000Y-119634000D03*
X202184000Y-125222000D03*
X205994000Y-122428000D03*
X207518000Y-119126000D03*
X205232000Y-115570000D03*
X201676000Y-118110000D03*
X202184000Y-103124000D03*
X202438000Y-110998000D03*
X202184000Y-106680000D03*
X195580000Y-109220000D03*
X199898000Y-110490000D03*
X205740000Y-108204000D03*
X208788000Y-100838000D03*
X205232000Y-103124000D03*
X200914000Y-99314000D03*
X201168000Y-92710000D03*
X206756000Y-80518000D03*
X200914000Y-85090000D03*
X204216000Y-86614000D03*
X205486000Y-91440000D03*
X207010000Y-88392000D03*
X206248000Y-84328000D03*
X201422000Y-87884000D03*
X201930000Y-81280000D03*
X200406000Y-78486000D03*
X202692000Y-77978000D03*
X206756000Y-77470000D03*
X207518000Y-72136000D03*
X208534000Y-65532000D03*
X203962000Y-66294000D03*
X201422000Y-69342000D03*
X200914000Y-74422000D03*
X203962000Y-71374000D03*
X205486000Y-67310000D03*
X201676000Y-63500000D03*
X194056000Y-58674000D03*
X199136000Y-57404000D03*
X196088000Y-60198000D03*
X139954000Y-67564000D03*
X143510000Y-68834000D03*
X152146000Y-67310000D03*
X154686000Y-69850000D03*
X167132000Y-70104000D03*
X167386000Y-68580000D03*
X167132000Y-65786000D03*
X166878000Y-61468000D03*
X168148000Y-56642000D03*
X165862000Y-58674000D03*
X161798000Y-60452000D03*
X161798000Y-62992000D03*
X155448000Y-62230000D03*
X152908000Y-59944000D03*
X152908000Y-62484000D03*
X143002000Y-61976000D03*
X139446000Y-61976000D03*
X136398000Y-60706000D03*
X135890000Y-62230000D03*
X121158000Y-59944000D03*
X115316000Y-58420000D03*
X108204000Y-67056000D03*
X108966000Y-74168000D03*
X113030000Y-76454000D03*
X110998000Y-81026000D03*
X113284000Y-88900000D03*
X109728000Y-89662000D03*
X108966000Y-84328000D03*
X108712000Y-79502000D03*
X110236000Y-70104000D03*
X112014000Y-66802000D03*
X108712000Y-123698000D03*
X120142000Y-129540000D03*
X115824000Y-133350000D03*
X119634000Y-132334000D03*
X122428000Y-129032000D03*
X116840000Y-130556000D03*
X115062000Y-128016000D03*
X113030000Y-121666000D03*
X118110000Y-110236000D03*
X111760000Y-111506000D03*
X110490000Y-114808000D03*
X109474000Y-117094000D03*
X114808000Y-106172000D03*
X112014000Y-103124000D03*
X108712000Y-106934000D03*
X108458000Y-103124000D03*
X152908000Y-100838000D03*
X149352000Y-102362000D03*
X152146000Y-102870000D03*
X152654000Y-105156000D03*
X148844000Y-113538000D03*
X150622000Y-115570000D03*
X152146000Y-114300000D03*
X154432000Y-113284000D03*
X156972000Y-113030000D03*
X156972000Y-110998000D03*
X156718000Y-108966000D03*
X152654000Y-108966000D03*
X148590000Y-109220000D03*
X149098000Y-111252000D03*
X150368000Y-113538000D03*
X150114000Y-120904000D03*
X149860000Y-125222000D03*
X149860000Y-126746000D03*
X148082000Y-128270000D03*
X136144000Y-128778000D03*
X140716000Y-128778000D03*
X143764000Y-127254000D03*
X145288000Y-126238000D03*
X146558000Y-124968000D03*
X141361630Y-117691555D03*
X141224000Y-116586000D03*
X138430000Y-116586000D03*
X134366000Y-115570000D03*
X183388000Y-75946000D03*
X187960000Y-75946000D03*
X185928000Y-77216000D03*
X185928000Y-78994000D03*
X188214000Y-79502000D03*
X183388000Y-79502000D03*
X181102000Y-72644000D03*
X179070000Y-72644000D03*
X181356000Y-79248000D03*
X179324000Y-79248000D03*
X179324000Y-77724000D03*
X179578000Y-75692000D03*
X170688000Y-78740000D03*
X170688000Y-76454000D03*
X170688000Y-74676000D03*
X170688000Y-73152000D03*
X161036000Y-79248000D03*
X161036000Y-77724000D03*
X161036000Y-75692000D03*
X161036000Y-73406000D03*
X156718000Y-78994000D03*
X155448000Y-76962000D03*
X156718000Y-75184000D03*
X140970000Y-103124000D03*
X138430000Y-103632000D03*
X137414000Y-106426000D03*
X137414000Y-109474000D03*
X138684000Y-110998000D03*
X187198000Y-125730000D03*
X187606140Y-119289830D03*
X186182000Y-118364000D03*
X184150000Y-118618000D03*
X182118000Y-118618000D03*
X190754000Y-97028000D03*
X190590840Y-99619662D03*
X190754000Y-94996000D03*
X176784000Y-109982000D03*
X176530000Y-108712000D03*
X161036000Y-112268000D03*
X161236809Y-109186421D03*
X161423242Y-106296708D03*
X160975802Y-103668001D03*
X161544000Y-101092000D03*
X161544000Y-98044000D03*
X161036000Y-96266000D03*
X161290000Y-94488000D03*
X155979395Y-94831070D03*
X155194000Y-97790000D03*
X151384000Y-94742000D03*
X146304000Y-94742000D03*
X152908000Y-89916000D03*
X151130000Y-87376000D03*
X148336000Y-84582000D03*
X152654000Y-84582000D03*
X123952000Y-92456000D03*
X123952000Y-87884000D03*
X123952000Y-82550000D03*
X127350871Y-107773436D03*
X132559974Y-111426553D03*
X132444580Y-115437729D03*
X144018000Y-108966000D03*
X144018000Y-107696000D03*
X144018000Y-104902000D03*
X144018000Y-103632000D03*
X140716000Y-92710000D03*
X136906000Y-91948000D03*
X138176000Y-90424000D03*
X134620000Y-93980000D03*
X138684000Y-92964000D03*
X142240000Y-90678000D03*
X135128000Y-87122000D03*
X134874000Y-89154000D03*
X140208000Y-88138000D03*
X141732000Y-81788000D03*
X138176000Y-83566000D03*
X139700000Y-82804000D03*
X139954000Y-80010000D03*
X135128000Y-80772000D03*
X135128000Y-76962000D03*
X138430000Y-77216000D03*
X142494000Y-76708000D03*
X144272000Y-73406000D03*
X141986000Y-73152000D03*
X138176000Y-73152000D03*
X134366000Y-73152000D03*
X195326000Y-72390000D03*
X190754000Y-74422000D03*
X191262000Y-78740000D03*
X192786000Y-77216000D03*
X195072000Y-78994000D03*
X194818000Y-77216000D03*
X183642000Y-72644000D03*
X188214000Y-72644000D03*
X167132000Y-78486000D03*
X167132000Y-76708000D03*
X167132000Y-74930000D03*
X167132000Y-72898000D03*
X150114000Y-93218000D03*
X134112000Y-130302000D03*
X191262000Y-72644000D03*
X191516000Y-76708000D03*
X192532000Y-78994000D03*
X187452000Y-78232000D03*
X184404000Y-78232000D03*
X180594000Y-77724000D03*
X181356000Y-76708000D03*
X180340000Y-73914000D03*
X175260000Y-73914000D03*
X171704000Y-78232000D03*
X174752000Y-77216000D03*
X172974000Y-74676000D03*
X162814000Y-78232000D03*
X163322000Y-74930000D03*
X155702000Y-72898000D03*
X147320000Y-76708000D03*
X146050000Y-73406000D03*
X149352000Y-78486000D03*
X149606000Y-76962000D03*
X149352000Y-73914000D03*
X135382000Y-103632000D03*
X139954000Y-105156000D03*
X139446000Y-108458000D03*
X135382000Y-106934000D03*
X144018000Y-106172000D03*
X144018000Y-101600000D03*
X139954000Y-101092000D03*
X136652000Y-101092000D03*
X134112000Y-101092000D03*
X140970000Y-95758000D03*
X137922000Y-95758000D03*
X134620000Y-95758000D03*
D15*
X205486000Y-95758000D03*
D14*
X156322500Y-129032000D03*
X161544000Y-131826000D03*
X150506843Y-61246425D03*
X191404501Y-98368004D03*
X195929568Y-84088326D03*
X186500000Y-55750000D03*
X184648904Y-58837103D03*
X162705461Y-61661320D03*
X174244000Y-109474000D03*
X171806607Y-113814333D03*
X182850977Y-127379433D03*
X148778101Y-103710940D03*
X173990000Y-131826000D03*
X164289882Y-100300369D03*
X150500000Y-82250000D03*
X173481906Y-65346169D03*
X174991052Y-87992510D03*
X184912000Y-131572000D03*
X176016238Y-99480646D03*
X117000000Y-83250000D03*
D16*
X128270000Y-128016000D03*
X185420000Y-110490000D03*
D14*
X125236125Y-57033227D03*
X150114000Y-131064000D03*
X179507489Y-102684848D03*
X149000000Y-68250000D03*
X153500000Y-96250000D03*
X148082000Y-119380000D03*
X122965788Y-119596767D03*
X145288000Y-131826000D03*
X171514779Y-87644883D03*
X164721699Y-87979586D03*
X142748000Y-119380000D03*
X132250000Y-106500000D03*
X179437963Y-106161121D03*
X149606000Y-133858000D03*
X151051197Y-119975277D03*
X185166000Y-120904000D03*
X165862000Y-109982000D03*
D16*
X129286000Y-132080000D03*
D14*
X198236125Y-103119344D03*
X154640509Y-82310379D03*
X184150000Y-123952000D03*
X123057661Y-70938317D03*
X174625729Y-96212950D03*
X193040000Y-115062000D03*
X169418000Y-115062000D03*
X179996885Y-91955461D03*
X151638000Y-134112000D03*
X155750000Y-66000000D03*
X146558000Y-126746000D03*
X172777082Y-125641474D03*
X173736000Y-113792000D03*
X132459952Y-112611337D03*
X191262000Y-129794000D03*
X176530000Y-123190000D03*
D16*
X135636000Y-127254000D03*
D14*
X131817868Y-56430673D03*
X131318000Y-120142000D03*
X179301630Y-63658602D03*
X179510206Y-87366781D03*
X171704000Y-125984000D03*
X186944000Y-129540000D03*
X118468981Y-69501458D03*
X144752539Y-57991604D03*
X162814000Y-124206000D03*
X175748212Y-105920397D03*
X169672000Y-133096000D03*
X191770000Y-116840000D03*
X116500000Y-113250000D03*
X175500000Y-68750000D03*
X188725590Y-61253034D03*
X173252916Y-91677359D03*
X174028055Y-128915624D03*
X184912000Y-124968000D03*
D16*
X134620000Y-117602000D03*
D14*
X160528000Y-125730000D03*
X132588000Y-119634000D03*
X181454201Y-100738136D03*
X135890000Y-119126000D03*
X154832603Y-117580387D03*
X189230000Y-123444000D03*
X121920000Y-133858000D03*
X172466000Y-134366000D03*
X170180000Y-110490000D03*
X162814000Y-121158000D03*
D16*
X123190000Y-127762000D03*
D14*
X155956000Y-117856000D03*
X197505478Y-97066410D03*
X149500000Y-96500000D03*
X189230000Y-124714000D03*
X180970241Y-81874270D03*
X172212000Y-126746000D03*
X135128000Y-125730000D03*
X133858000Y-120904000D03*
X165100000Y-120396000D03*
X171497083Y-99063494D03*
X165608000Y-133604000D03*
X163830000Y-122936000D03*
X139700000Y-131826000D03*
X156718000Y-115570000D03*
X137160000Y-130810000D03*
X147750000Y-88250000D03*
X179070000Y-129032000D03*
X140208000Y-130556000D03*
X193480646Y-119994285D03*
D16*
X129286000Y-128270000D03*
D14*
X155702000Y-112776000D03*
X182880000Y-129794000D03*
X187400362Y-86680275D03*
X155913004Y-115239517D03*
X137379197Y-67977730D03*
X129222251Y-67832847D03*
X138938000Y-130302000D03*
X166807463Y-91942536D03*
X136952944Y-55604529D03*
X170434000Y-120904000D03*
X148082000Y-120396000D03*
X191516273Y-63950663D03*
X136652000Y-125222000D03*
X145500000Y-67250000D03*
X195316056Y-103119344D03*
X117000000Y-95250000D03*
X132334000Y-114300000D03*
X173990000Y-129794000D03*
X187155288Y-101433390D03*
X162306000Y-115316000D03*
X181500000Y-62500000D03*
X148590000Y-125222000D03*
X144272000Y-132842000D03*
X194310000Y-123190000D03*
X127182838Y-61482856D03*
X146812000Y-134112000D03*
X166370000Y-129032000D03*
X119380000Y-78740000D03*
X177038000Y-122428000D03*
X154904630Y-120443451D03*
X169164000Y-125476000D03*
X184150000Y-120650000D03*
X191262000Y-133350000D03*
X188984221Y-55630208D03*
X125984000Y-133350000D03*
X171326617Y-61383218D03*
D16*
X188468000Y-110236000D03*
D14*
X191516000Y-121920000D03*
D16*
X116000000Y-112500000D03*
D14*
X151130000Y-118364000D03*
X163068000Y-132334000D03*
X167132000Y-111252000D03*
X129555496Y-79990146D03*
X189230000Y-120650000D03*
X139446000Y-125984000D03*
D16*
X135890000Y-117856000D03*
D14*
X185486678Y-102962950D03*
X136652000Y-132080000D03*
X117750000Y-87500000D03*
X184150000Y-121920000D03*
X138176000Y-132080000D03*
X197016790Y-124865323D03*
X180848000Y-109474000D03*
D16*
X128016000Y-111252000D03*
D14*
X155250000Y-100750000D03*
X161290000Y-117856000D03*
X116800371Y-61900008D03*
X192128844Y-89464961D03*
X171250000Y-68000000D03*
X179324000Y-109982000D03*
D16*
X131318000Y-131826000D03*
D14*
X116332000Y-127000000D03*
X188250000Y-65750000D03*
X185250000Y-107000000D03*
X165862000Y-122936000D03*
X147750000Y-64000000D03*
D16*
X132842000Y-116840000D03*
D14*
X143002000Y-120396000D03*
X124968000Y-120650000D03*
X157101446Y-117976534D03*
X172212000Y-123444000D03*
X184772505Y-61278219D03*
X194494521Y-99511311D03*
X165464090Y-103730291D03*
X161544000Y-122936000D03*
X168656000Y-128524000D03*
X119126000Y-119634000D03*
X116846721Y-65098179D03*
X164846000Y-124206000D03*
X185546350Y-85753269D03*
X163830000Y-65346169D03*
X173989444Y-130838415D03*
D16*
X129794000Y-118618000D03*
D14*
X181000000Y-66750000D03*
X177292000Y-133604000D03*
X136906000Y-127000000D03*
X155642904Y-118948895D03*
X137668000Y-129794000D03*
X166116000Y-115062000D03*
X142226837Y-57934648D03*
X172500000Y-111000000D03*
X155956000Y-116840000D03*
X137703649Y-64316056D03*
X167132000Y-117856000D03*
X138176000Y-126238000D03*
X129000000Y-55750000D03*
X189230000Y-122174000D03*
X117562284Y-120708327D03*
X154178000Y-116586000D03*
X122750000Y-67250000D03*
X171196000Y-130556000D03*
X173721898Y-100454003D03*
X123706565Y-63151466D03*
X136398000Y-134366000D03*
X194859490Y-116473709D03*
X184150000Y-122936000D03*
X165608000Y-111506000D03*
X167640000Y-122936000D03*
X175500000Y-81750000D03*
X151130000Y-110490000D03*
X184761193Y-55733209D03*
X164084000Y-117856000D03*
X132476107Y-61505338D03*
X144272000Y-134112000D03*
X170942000Y-115062000D03*
D16*
X133858000Y-127508000D03*
D14*
X184896105Y-63472133D03*
X153924000Y-110236000D03*
X165608000Y-57150000D03*
X174752000Y-115062000D03*
X167132000Y-124206000D03*
X148336000Y-126746000D03*
X116961337Y-100378093D03*
X159512000Y-123698000D03*
X147066000Y-113284000D03*
X164592000Y-110744000D03*
X158242000Y-127762000D03*
X158830089Y-133318236D03*
X143256000Y-121412000D03*
X176784000Y-114808000D03*
X121209128Y-105317515D03*
X181523727Y-95940880D03*
X178816000Y-113792000D03*
X161500000Y-81250000D03*
D16*
X129794000Y-114300000D03*
D15*
X109982000Y-130000000D03*
D14*
X191188435Y-58370026D03*
X182880000Y-113284000D03*
X123218628Y-99126634D03*
D16*
X134366000Y-128524000D03*
D14*
X196856574Y-87842700D03*
X152977914Y-115545630D03*
X179229387Y-96010405D03*
X185971898Y-127533934D03*
X180848000Y-104648000D03*
X187452000Y-113792000D03*
X120947463Y-100146341D03*
X187363865Y-106925901D03*
X139192000Y-127508000D03*
X186102553Y-68418257D03*
X162560000Y-133858000D03*
X128687963Y-105291224D03*
X172720000Y-115062000D03*
X181610000Y-131318000D03*
X119250000Y-92750000D03*
D15*
X205486000Y-130000000D03*
D14*
X182118000Y-111506000D03*
X171187566Y-56516436D03*
X171566609Y-102470241D03*
X197000000Y-116250000D03*
X148336000Y-132588000D03*
X155050722Y-104317395D03*
X191155841Y-68212398D03*
D16*
X132588000Y-128016000D03*
D14*
X129244167Y-102695608D03*
X148082000Y-121412000D03*
X179324000Y-133604000D03*
X123000000Y-103250000D03*
X145796000Y-120396000D03*
D16*
X132842000Y-124206000D03*
D14*
X128952942Y-91160569D03*
X181595970Y-56636532D03*
X166500000Y-97000000D03*
X149664682Y-123702662D03*
X133096000Y-134366000D03*
X141478000Y-127000000D03*
X173990000Y-128016000D03*
D15*
X109982000Y-95758000D03*
D14*
X150150863Y-122676281D03*
X121898904Y-64588326D03*
X196447066Y-119685283D03*
X117825556Y-103834305D03*
X194750000Y-68000000D03*
X147210822Y-61040424D03*
X161732105Y-68127187D03*
X135382000Y-131826000D03*
X140592301Y-55645729D03*
X171010405Y-96212950D03*
X184912000Y-115062000D03*
X132545317Y-110151756D03*
X146812000Y-122682000D03*
X164846000Y-109474000D03*
X177121760Y-125610090D03*
X144272000Y-128270000D03*
X157182836Y-97488450D03*
X133858000Y-119126000D03*
X172212000Y-121920000D03*
X146050000Y-112014000D03*
X171876163Y-109255714D03*
X147574000Y-131318000D03*
X132374072Y-68203649D03*
X178050172Y-56149853D03*
X183642000Y-133858000D03*
X164691585Y-106356808D03*
X147204003Y-81946712D03*
X177038000Y-119888000D03*
X185090795Y-57855023D03*
X187428110Y-117722251D03*
X129794000Y-134366000D03*
D16*
X139954000Y-119126000D03*
D14*
X117000000Y-72500000D03*
X191516000Y-127508000D03*
X129416445Y-88101449D03*
X195095263Y-91179922D03*
X154432000Y-111506000D03*
X181317868Y-89383019D03*
X198250000Y-68250000D03*
X132842000Y-125730000D03*
X192036143Y-82558766D03*
X191500000Y-61500000D03*
X192036143Y-86266790D03*
X146970440Y-96712044D03*
D16*
X132842000Y-122682000D03*
D14*
X161036000Y-119634000D03*
X174417152Y-104208377D03*
X167132000Y-112776000D03*
X189484000Y-112014000D03*
X168402000Y-117856000D03*
X185166000Y-123952000D03*
X153410074Y-134110530D03*
X174733364Y-58324098D03*
X123952000Y-133350000D03*
X146050000Y-128524000D03*
X172466000Y-118110000D03*
X179324000Y-112014000D03*
X130250000Y-84250000D03*
X132188671Y-63985772D03*
X157480000Y-134112000D03*
X116750000Y-77250000D03*
X142000000Y-64250000D03*
X135890000Y-130810000D03*
X144780000Y-123952000D03*
D16*
X117500000Y-113000000D03*
X139954000Y-120396000D03*
D14*
X155194000Y-133350000D03*
X121158000Y-120650000D03*
X145666612Y-122777451D03*
X187198000Y-132080000D03*
X195856034Y-63964396D03*
X172720000Y-112522000D03*
X185695254Y-99278101D03*
X164026444Y-57420267D03*
X133858000Y-124968000D03*
D16*
X130810000Y-115062000D03*
D14*
X151892000Y-116586000D03*
X186890509Y-90063847D03*
X188722000Y-130302000D03*
X160274000Y-133604000D03*
X179857834Y-69151113D03*
D16*
X139954000Y-121666000D03*
D14*
X166737937Y-81197972D03*
X193639851Y-56021611D03*
X136144000Y-121412000D03*
X184804745Y-89275892D03*
X174244000Y-117602000D03*
X168402000Y-119634000D03*
X167640000Y-121158000D03*
X173620957Y-61452743D03*
X150708024Y-57926230D03*
X178562000Y-131318000D03*
X193500000Y-65500000D03*
X145219476Y-60642155D03*
X187949511Y-127194032D03*
X196949275Y-81168257D03*
X141867784Y-130005004D03*
D15*
X109982000Y-60452000D03*
D14*
X185166000Y-121920000D03*
X198808720Y-63167858D03*
X166878000Y-127508000D03*
X154432000Y-132334000D03*
X165608000Y-117856000D03*
X138176000Y-119888000D03*
X186334305Y-81998895D03*
X179832000Y-118872000D03*
X179994167Y-98374270D03*
X122547808Y-57218628D03*
X139954000Y-134366000D03*
X197368239Y-99696712D03*
X154988136Y-87145280D03*
X152400000Y-112014000D03*
X193542447Y-125247319D03*
X197551829Y-92245979D03*
X146050000Y-109474000D03*
X150124072Y-90220241D03*
X185166000Y-122936000D03*
X116000000Y-114500000D03*
X178985612Y-124653051D03*
X184896105Y-66036850D03*
X178054000Y-122682000D03*
D15*
X205486000Y-60452000D03*
D14*
X135382000Y-124206000D03*
X155194000Y-110236000D03*
X149102553Y-100095616D03*
X128434296Y-77844512D03*
X123521164Y-77844512D03*
D16*
X117348000Y-114300000D03*
D14*
X162560000Y-117856000D03*
X183134000Y-109982000D03*
X150889137Y-117166233D03*
D16*
X127508000Y-134366000D03*
D14*
X146500000Y-91250000D03*
X191106034Y-56021611D03*
X167640000Y-115062000D03*
X149606000Y-128270000D03*
X134112000Y-132080000D03*
X138430000Y-124968000D03*
X179510206Y-55941277D03*
X172349085Y-82917152D03*
X154640509Y-91455858D03*
X138176000Y-123444000D03*
X140208000Y-114046000D03*
X134366000Y-114046000D03*
X144018000Y-114046000D03*
X141478000Y-114046000D03*
X134112000Y-110744000D03*
X134112000Y-112522000D03*
X135382000Y-114554000D03*
X136906000Y-115824000D03*
X142748000Y-114046000D03*
X138938000Y-117602000D03*
X140208000Y-112522000D03*
X139954000Y-110490000D03*
X143510000Y-116586000D03*
X137668000Y-117348000D03*
X147574000Y-115570000D03*
X136652000Y-113538000D03*
X184495552Y-110500048D03*
X147250000Y-107500000D03*
D16*
X124714000Y-132334000D03*
D14*
X127000000Y-109750000D03*
X143750000Y-99250000D03*
X183075423Y-108776799D03*
X131000000Y-107750000D03*
D16*
X175768000Y-110998000D03*
D14*
X146500000Y-98250000D03*
X143764000Y-97750000D03*
X170250000Y-104250000D03*
X130750000Y-104000000D03*
D16*
X128016000Y-119634000D03*
X131318000Y-118364000D03*
X129032000Y-124460000D03*
D14*
X156210000Y-126746000D03*
X152908000Y-132080000D03*
D17*
X128016000Y-112522000D02*
X131000000Y-109538000D01*
X131000000Y-109538000D02*
X131000000Y-107750000D01*
X128016000Y-119634000D02*
X128016000Y-112522000D01*
D18*
X127000000Y-114888016D02*
X127000000Y-109750000D01*
X125984000Y-115904016D02*
X127000000Y-114888016D01*
X125984000Y-131826000D02*
X125984000Y-115904016D01*
X125476000Y-132334000D02*
X125984000Y-131826000D01*
X124714000Y-132334000D02*
X125476000Y-132334000D01*
D19*
X125832838Y-108582838D02*
X127000000Y-109750000D01*
X125832838Y-59592162D02*
X125832838Y-108582838D01*
X126500000Y-58925000D02*
X125832838Y-59592162D01*
D20*
X191194000Y-93218000D02*
X193480000Y-95504000D01*
X150114000Y-93218000D02*
X191194000Y-93218000D01*
X190754000Y-113030000D02*
X190754000Y-101346000D01*
X190754000Y-101346000D02*
X193480000Y-98620000D01*
X187198000Y-116586000D02*
X190754000Y-113030000D01*
X170942000Y-116586000D02*
X187198000Y-116586000D01*
X170180000Y-117348000D02*
X170942000Y-116586000D01*
X168910000Y-120904000D02*
X170180000Y-119634000D01*
X168910000Y-123952000D02*
X168910000Y-120904000D01*
X166204000Y-126658000D02*
X168910000Y-123952000D01*
X170180000Y-119634000D02*
X170180000Y-117348000D01*
X158662000Y-126658000D02*
X166204000Y-126658000D01*
X157226000Y-125222000D02*
X158662000Y-126658000D01*
X153670000Y-125222000D02*
X157226000Y-125222000D01*
X193480000Y-98620000D02*
X193480000Y-95504000D01*
X151638000Y-127254000D02*
X153670000Y-125222000D01*
X151638000Y-128524000D02*
X151638000Y-127254000D01*
X150114000Y-130048000D02*
X151638000Y-128524000D01*
X145863918Y-130048000D02*
X150114000Y-130048000D01*
X142561918Y-133350000D02*
X145863918Y-130048000D01*
X133604000Y-133350000D02*
X142561918Y-133350000D01*
X133262000Y-133008000D02*
X133604000Y-133350000D01*
X133262000Y-131152000D02*
X133262000Y-133008000D01*
X134112000Y-130302000D02*
X133262000Y-131152000D01*
D17*
X134152000Y-97750000D02*
X130750000Y-101152000D01*
X143764000Y-97750000D02*
X134152000Y-97750000D01*
X130750000Y-101152000D02*
X130750000Y-104000000D01*
D20*
X156322500Y-131430500D02*
X156718000Y-131826000D01*
X156718000Y-131826000D02*
X161544000Y-131826000D01*
X156322500Y-129032000D02*
X156322500Y-131430500D01*
X138684000Y-115570000D02*
X136652000Y-113538000D01*
X147574000Y-115570000D02*
X138684000Y-115570000D01*
X184495600Y-110500000D02*
X184495552Y-110500048D01*
X147250000Y-107500000D02*
X183000000Y-107500000D01*
X184500000Y-109000000D02*
X184500000Y-110500000D01*
X184500000Y-110500000D02*
X184495600Y-110500000D01*
X133750000Y-99250000D02*
X143750000Y-99250000D01*
X132000000Y-104750000D02*
X132000000Y-101000000D01*
X127000000Y-109750000D02*
X132000000Y-104750000D01*
X183000000Y-107500000D02*
X184500000Y-109000000D01*
X132000000Y-101000000D02*
X133750000Y-99250000D01*
D17*
X182118000Y-109728000D02*
X182124222Y-109728000D01*
X170250000Y-104250000D02*
X165000000Y-99000000D01*
X180848000Y-110998000D02*
X182118000Y-109728000D01*
X175768000Y-110998000D02*
X180848000Y-110998000D01*
X147250000Y-99000000D02*
X146500000Y-98250000D01*
X165000000Y-99000000D02*
X147250000Y-99000000D01*
X182124222Y-109728000D02*
X183075423Y-108776799D01*
X129032000Y-120650000D02*
X131318000Y-118364000D01*
X129032000Y-124460000D02*
X129032000Y-120650000D01*
D20*
X154432000Y-126746000D02*
X156210000Y-126746000D01*
X152908000Y-132080000D02*
X152908000Y-128270000D01*
X152908000Y-128270000D02*
X154432000Y-126746000D01*
G04 #@! TA.AperFunction,Conductor*
G36*
X110000497Y-54919354D02*
G01*
X110000497Y-54919353D01*
X110048989Y-54919645D01*
X110051646Y-54919359D01*
X205608150Y-54936024D01*
X205608184Y-54936034D01*
X205660000Y-54936034D01*
X205877994Y-54945050D01*
X206075882Y-54953689D01*
X206080843Y-54954105D01*
X206297337Y-54981091D01*
X206497241Y-55007408D01*
X206501795Y-55008185D01*
X206714869Y-55052862D01*
X206905795Y-55095189D01*
X206912401Y-55096654D01*
X206916662Y-55097759D01*
X207125117Y-55159818D01*
X207318512Y-55220795D01*
X207322356Y-55222149D01*
X207525020Y-55301229D01*
X207712586Y-55378920D01*
X207716022Y-55380470D01*
X207911548Y-55476058D01*
X208091795Y-55569888D01*
X208094825Y-55571577D01*
X208281919Y-55683062D01*
X208453367Y-55792287D01*
X208456049Y-55794096D01*
X208633408Y-55920729D01*
X208794772Y-56044548D01*
X208797072Y-56046402D01*
X208963500Y-56187361D01*
X209053258Y-56269609D01*
X209114505Y-56325732D01*
X209160068Y-56371295D01*
X209269818Y-56481046D01*
X209408121Y-56631978D01*
X209549185Y-56798533D01*
X209551062Y-56800861D01*
X209674682Y-56961966D01*
X209787128Y-57119458D01*
X209801499Y-57139585D01*
X209803331Y-57142300D01*
X209912286Y-57313326D01*
X210024035Y-57500867D01*
X210025764Y-57503966D01*
X210117789Y-57680745D01*
X210119202Y-57683459D01*
X210215150Y-57879727D01*
X210216731Y-57883232D01*
X210293963Y-58069689D01*
X210373465Y-58273441D01*
X210374837Y-58277336D01*
X210435298Y-58469095D01*
X210446149Y-58505543D01*
X210497842Y-58679179D01*
X210498950Y-58683452D01*
X210542201Y-58878548D01*
X210587388Y-59094065D01*
X210588178Y-59098697D01*
X210613896Y-59294052D01*
X210641443Y-59515066D01*
X210641860Y-59520032D01*
X210649871Y-59703516D01*
X210659500Y-59936363D01*
X210659500Y-59986281D01*
X210659605Y-59987249D01*
X210802605Y-130306946D01*
X210802547Y-130309750D01*
X210793579Y-130517230D01*
X210784053Y-130726047D01*
X210783597Y-130731234D01*
X210755761Y-130944877D01*
X210727698Y-131148790D01*
X210726837Y-131153623D01*
X210680507Y-131364831D01*
X210634117Y-131564821D01*
X210632908Y-131569272D01*
X210568402Y-131776110D01*
X210504049Y-131970881D01*
X210502554Y-131974928D01*
X210420315Y-132175749D01*
X210338529Y-132363780D01*
X210336809Y-132367410D01*
X210237413Y-132560655D01*
X210138865Y-132740425D01*
X210136980Y-132743632D01*
X210021127Y-132927833D01*
X209906638Y-133097861D01*
X209904649Y-133100645D01*
X209773159Y-133274402D01*
X209643674Y-133433286D01*
X209641641Y-133435657D01*
X209495463Y-133597632D01*
X209352068Y-133744050D01*
X209350045Y-133746024D01*
X209191237Y-133894039D01*
X209189126Y-133895918D01*
X209033146Y-134028546D01*
X208861045Y-134163184D01*
X208858537Y-134165047D01*
X208691397Y-134282734D01*
X208508256Y-134402066D01*
X208505340Y-134403853D01*
X208328572Y-134505609D01*
X208135704Y-134608758D01*
X208132374Y-134610412D01*
X207947514Y-134695450D01*
X207746275Y-134781661D01*
X207742534Y-134783122D01*
X207551277Y-134850770D01*
X207343057Y-134919396D01*
X207338916Y-134920603D01*
X207143121Y-134970348D01*
X206929176Y-135020892D01*
X206924652Y-135021785D01*
X206726561Y-135053271D01*
X206507887Y-135085341D01*
X206503005Y-135085860D01*
X206305998Y-135098972D01*
X206247353Y-135102451D01*
X206082536Y-135112228D01*
X206077336Y-135112317D01*
X205894798Y-135107804D01*
X205658490Y-135101393D01*
X205632771Y-135099636D01*
X205632326Y-135099850D01*
X205612352Y-135101448D01*
X118826329Y-135008910D01*
X110000500Y-134999500D01*
X110000434Y-134999500D01*
X109999299Y-134999165D01*
X109997438Y-134999394D01*
X109782728Y-134990513D01*
X109584080Y-134981839D01*
X109579114Y-134981422D01*
X109363319Y-134954524D01*
X109162733Y-134928115D01*
X109158101Y-134927326D01*
X108945826Y-134882818D01*
X108747472Y-134838843D01*
X108743200Y-134837735D01*
X108535496Y-134775899D01*
X108341340Y-134714681D01*
X108337445Y-134713309D01*
X108135566Y-134634536D01*
X107947229Y-134556524D01*
X107943744Y-134554953D01*
X107884503Y-134525992D01*
X107749007Y-134459750D01*
X107568000Y-134365525D01*
X107564891Y-134363791D01*
X107378617Y-134252797D01*
X107206335Y-134143040D01*
X107203621Y-134141209D01*
X107027081Y-134015162D01*
X106864900Y-133890716D01*
X106862572Y-133888839D01*
X106696940Y-133748557D01*
X106694176Y-133746024D01*
X106545103Y-133609424D01*
X106390574Y-133454895D01*
X106251439Y-133303055D01*
X106111159Y-133137426D01*
X106109282Y-133135098D01*
X105984837Y-132972918D01*
X105984132Y-132971930D01*
X132757641Y-132971930D01*
X132761342Y-133023669D01*
X132761500Y-133028094D01*
X132761500Y-133043799D01*
X132763734Y-133059343D01*
X132764207Y-133063740D01*
X132767909Y-133115485D01*
X132769593Y-133120000D01*
X132776148Y-133145682D01*
X132776834Y-133150455D01*
X132776835Y-133150457D01*
X132798383Y-133197642D01*
X132800071Y-133201716D01*
X132818203Y-133250329D01*
X132821096Y-133254194D01*
X132834617Y-133276983D01*
X132836619Y-133281367D01*
X132836622Y-133281371D01*
X132836623Y-133281373D01*
X132870598Y-133320583D01*
X132873362Y-133324013D01*
X132882775Y-133336588D01*
X132882782Y-133336596D01*
X132893886Y-133347700D01*
X132896896Y-133350932D01*
X132913901Y-133370557D01*
X132930871Y-133390142D01*
X132930874Y-133390145D01*
X132934928Y-133392750D01*
X132955571Y-133409385D01*
X133202614Y-133656428D01*
X133219246Y-133677066D01*
X133221854Y-133681125D01*
X133221857Y-133681128D01*
X133261067Y-133715103D01*
X133264283Y-133718097D01*
X133275407Y-133729221D01*
X133275412Y-133729224D01*
X133275417Y-133729229D01*
X133287979Y-133738633D01*
X133291427Y-133741411D01*
X133321947Y-133767856D01*
X133330627Y-133775377D01*
X133335010Y-133777379D01*
X133357807Y-133790905D01*
X133361669Y-133793796D01*
X133410295Y-133811932D01*
X133414351Y-133813612D01*
X133436457Y-133823708D01*
X133461540Y-133835164D01*
X133461541Y-133835164D01*
X133461543Y-133835165D01*
X133466312Y-133835850D01*
X133492002Y-133842407D01*
X133496517Y-133844091D01*
X133548258Y-133847791D01*
X133552657Y-133848264D01*
X133568201Y-133850500D01*
X133583906Y-133850500D01*
X133588328Y-133850657D01*
X133640073Y-133854359D01*
X133644785Y-133853334D01*
X133671143Y-133850500D01*
X142494775Y-133850500D01*
X142521133Y-133853334D01*
X142525845Y-133854359D01*
X142577589Y-133850657D01*
X142582012Y-133850500D01*
X142597717Y-133850500D01*
X142613260Y-133848264D01*
X142617658Y-133847791D01*
X142669401Y-133844091D01*
X142673910Y-133842408D01*
X142699603Y-133835850D01*
X142704375Y-133835165D01*
X142751564Y-133813613D01*
X142755654Y-133811920D01*
X142784556Y-133801140D01*
X142804247Y-133793797D01*
X142804247Y-133793796D01*
X142804249Y-133793796D01*
X142808107Y-133790907D01*
X142830913Y-133777375D01*
X142835291Y-133775377D01*
X142874489Y-133741411D01*
X142877932Y-133738637D01*
X142880848Y-133736453D01*
X142890511Y-133729221D01*
X142901638Y-133718092D01*
X142904843Y-133715109D01*
X142944061Y-133681128D01*
X142946669Y-133677068D01*
X142963299Y-133656431D01*
X144539731Y-132080000D01*
X152252722Y-132080000D01*
X152271762Y-132236818D01*
X152320485Y-132365287D01*
X152327780Y-132384523D01*
X152417517Y-132514530D01*
X152535760Y-132619283D01*
X152535762Y-132619284D01*
X152675634Y-132692696D01*
X152829014Y-132730500D01*
X152829015Y-132730500D01*
X152986985Y-132730500D01*
X153140365Y-132692696D01*
X153280240Y-132619283D01*
X153398483Y-132514530D01*
X153488220Y-132384523D01*
X153544237Y-132236818D01*
X153563278Y-132080000D01*
X153559978Y-132052817D01*
X153544237Y-131923181D01*
X153514891Y-131845804D01*
X153488220Y-131775477D01*
X153438794Y-131703871D01*
X153430450Y-131691782D01*
X153408567Y-131625427D01*
X153408500Y-131621342D01*
X153408500Y-129032000D01*
X155667222Y-129032000D01*
X155686262Y-129188818D01*
X155742280Y-129336523D01*
X155742280Y-129336524D01*
X155800050Y-129420217D01*
X155821933Y-129486571D01*
X155822000Y-129490657D01*
X155822000Y-131363358D01*
X155819167Y-131389706D01*
X155818141Y-131394427D01*
X155818141Y-131394429D01*
X155818141Y-131394430D01*
X155821842Y-131446169D01*
X155822000Y-131450594D01*
X155822000Y-131466299D01*
X155824234Y-131481843D01*
X155824707Y-131486240D01*
X155828409Y-131537985D01*
X155830093Y-131542500D01*
X155836648Y-131568182D01*
X155837334Y-131572955D01*
X155837335Y-131572957D01*
X155858883Y-131620142D01*
X155860571Y-131624216D01*
X155878703Y-131672829D01*
X155881596Y-131676694D01*
X155895117Y-131699483D01*
X155897119Y-131703867D01*
X155897122Y-131703871D01*
X155897123Y-131703873D01*
X155931098Y-131743083D01*
X155933862Y-131746513D01*
X155943275Y-131759088D01*
X155943282Y-131759096D01*
X155954386Y-131770200D01*
X155957396Y-131773432D01*
X155974854Y-131793580D01*
X155991371Y-131812642D01*
X155991374Y-131812645D01*
X155995428Y-131815250D01*
X156016071Y-131831885D01*
X156316614Y-132132428D01*
X156333246Y-132153066D01*
X156335854Y-132157125D01*
X156335858Y-132157129D01*
X156375055Y-132191093D01*
X156378296Y-132194110D01*
X156389396Y-132205211D01*
X156389401Y-132205215D01*
X156389406Y-132205220D01*
X156401979Y-132214631D01*
X156405419Y-132217402D01*
X156444627Y-132251377D01*
X156449012Y-132253379D01*
X156471813Y-132266908D01*
X156475669Y-132269795D01*
X156519211Y-132286035D01*
X156524269Y-132287922D01*
X156528359Y-132289617D01*
X156559081Y-132303647D01*
X156575543Y-132311165D01*
X156580316Y-132311851D01*
X156606004Y-132318408D01*
X156610517Y-132320091D01*
X156662245Y-132323790D01*
X156666652Y-132324264D01*
X156682200Y-132326500D01*
X156682201Y-132326500D01*
X156697915Y-132326500D01*
X156702337Y-132326657D01*
X156754073Y-132330358D01*
X156757302Y-132329655D01*
X156758781Y-132329334D01*
X156785138Y-132326500D01*
X161080956Y-132326500D01*
X161147995Y-132346185D01*
X161163179Y-132357681D01*
X161171760Y-132365283D01*
X161171762Y-132365284D01*
X161171766Y-132365287D01*
X161311634Y-132438696D01*
X161465014Y-132476500D01*
X161465015Y-132476500D01*
X161622985Y-132476500D01*
X161776365Y-132438696D01*
X161789127Y-132431998D01*
X161916240Y-132365283D01*
X162034483Y-132260530D01*
X162124220Y-132130523D01*
X162180237Y-131982818D01*
X162199278Y-131826000D01*
X162197657Y-131812645D01*
X162180237Y-131669181D01*
X162155224Y-131603228D01*
X162124220Y-131521477D01*
X162034483Y-131391470D01*
X161916240Y-131286717D01*
X161916238Y-131286716D01*
X161916237Y-131286715D01*
X161776365Y-131213303D01*
X161622986Y-131175500D01*
X161622985Y-131175500D01*
X161465015Y-131175500D01*
X161465014Y-131175500D01*
X161311634Y-131213303D01*
X161171766Y-131286712D01*
X161171762Y-131286715D01*
X161171760Y-131286717D01*
X161163181Y-131294316D01*
X161099950Y-131324037D01*
X161080956Y-131325500D01*
X156976676Y-131325500D01*
X156909637Y-131305815D01*
X156888995Y-131289181D01*
X156859319Y-131259505D01*
X156825834Y-131198182D01*
X156823000Y-131171824D01*
X156823000Y-129490657D01*
X156842685Y-129423618D01*
X156844950Y-129420217D01*
X156902719Y-129336524D01*
X156902720Y-129336523D01*
X156958737Y-129188818D01*
X156977778Y-129032000D01*
X156958737Y-128875182D01*
X156944093Y-128836570D01*
X156917455Y-128766331D01*
X156902720Y-128727477D01*
X156812983Y-128597470D01*
X156694740Y-128492717D01*
X156694738Y-128492716D01*
X156694737Y-128492715D01*
X156554865Y-128419303D01*
X156401486Y-128381500D01*
X156401485Y-128381500D01*
X156243515Y-128381500D01*
X156243514Y-128381500D01*
X156090134Y-128419303D01*
X155950262Y-128492715D01*
X155950260Y-128492717D01*
X155852015Y-128579754D01*
X155832016Y-128597471D01*
X155742281Y-128727475D01*
X155742280Y-128727476D01*
X155686262Y-128875181D01*
X155667222Y-129031999D01*
X155667222Y-129032000D01*
X153408500Y-129032000D01*
X153408500Y-128528676D01*
X153428185Y-128461637D01*
X153444819Y-128440995D01*
X154602995Y-127282819D01*
X154664318Y-127249334D01*
X154690676Y-127246500D01*
X155746956Y-127246500D01*
X155813995Y-127266185D01*
X155829179Y-127277681D01*
X155837760Y-127285283D01*
X155837762Y-127285284D01*
X155837766Y-127285287D01*
X155977634Y-127358696D01*
X156131014Y-127396500D01*
X156131015Y-127396500D01*
X156288985Y-127396500D01*
X156442365Y-127358696D01*
X156513915Y-127321143D01*
X156582240Y-127285283D01*
X156700483Y-127180530D01*
X156790220Y-127050523D01*
X156846237Y-126902818D01*
X156865278Y-126746000D01*
X156846237Y-126589182D01*
X156790220Y-126441477D01*
X156700483Y-126311470D01*
X156582240Y-126206717D01*
X156582238Y-126206716D01*
X156582237Y-126206715D01*
X156442365Y-126133303D01*
X156288986Y-126095500D01*
X156288985Y-126095500D01*
X156131015Y-126095500D01*
X156131014Y-126095500D01*
X155977634Y-126133303D01*
X155837766Y-126206712D01*
X155837762Y-126206715D01*
X155837760Y-126206717D01*
X155829181Y-126214316D01*
X155765950Y-126244037D01*
X155746956Y-126245500D01*
X154499138Y-126245500D01*
X154472781Y-126242666D01*
X154468076Y-126241642D01*
X154468068Y-126241642D01*
X154423357Y-126244840D01*
X154416337Y-126245342D01*
X154411915Y-126245500D01*
X154396199Y-126245500D01*
X154380646Y-126247736D01*
X154376250Y-126248208D01*
X154324517Y-126251909D01*
X154324514Y-126251910D01*
X154319996Y-126253595D01*
X154294320Y-126260148D01*
X154289541Y-126260835D01*
X154242355Y-126282384D01*
X154238267Y-126284077D01*
X154189668Y-126302205D01*
X154189667Y-126302206D01*
X154185802Y-126305099D01*
X154163020Y-126318616D01*
X154158631Y-126320620D01*
X154158630Y-126320621D01*
X154158628Y-126320622D01*
X154158627Y-126320623D01*
X154144194Y-126333128D01*
X154119417Y-126354597D01*
X154115973Y-126357372D01*
X154103406Y-126366780D01*
X154103403Y-126366783D01*
X154092290Y-126377893D01*
X154089056Y-126380904D01*
X154049862Y-126414866D01*
X154049854Y-126414876D01*
X154047243Y-126418938D01*
X154030616Y-126439568D01*
X152601568Y-127868616D01*
X152580938Y-127885243D01*
X152576876Y-127887854D01*
X152576867Y-127887861D01*
X152542905Y-127927055D01*
X152539892Y-127930291D01*
X152528781Y-127941402D01*
X152519354Y-127953996D01*
X152516587Y-127957428D01*
X152503375Y-127972676D01*
X152482623Y-127996626D01*
X152482617Y-127996636D01*
X152480615Y-128001020D01*
X152467100Y-128023799D01*
X152464206Y-128027664D01*
X152464200Y-128027675D01*
X152446078Y-128076264D01*
X152444385Y-128080353D01*
X152422835Y-128127543D01*
X152422833Y-128127550D01*
X152422146Y-128132327D01*
X152415598Y-128157986D01*
X152413910Y-128162513D01*
X152413909Y-128162517D01*
X152410207Y-128214260D01*
X152409734Y-128218656D01*
X152407500Y-128234199D01*
X152407500Y-128249904D01*
X152407342Y-128254329D01*
X152403641Y-128306069D01*
X152403641Y-128306073D01*
X152404666Y-128310785D01*
X152407500Y-128337143D01*
X152407500Y-131621342D01*
X152387815Y-131688381D01*
X152385550Y-131691782D01*
X152327781Y-131775475D01*
X152327780Y-131775476D01*
X152271762Y-131923181D01*
X152252722Y-132079999D01*
X152252722Y-132080000D01*
X144539731Y-132080000D01*
X146034913Y-130584819D01*
X146096236Y-130551334D01*
X146122594Y-130548500D01*
X150046857Y-130548500D01*
X150073215Y-130551334D01*
X150077927Y-130552359D01*
X150129671Y-130548657D01*
X150134094Y-130548500D01*
X150149799Y-130548500D01*
X150165342Y-130546264D01*
X150169740Y-130545791D01*
X150221483Y-130542091D01*
X150225992Y-130540408D01*
X150251685Y-130533850D01*
X150256457Y-130533165D01*
X150303646Y-130511613D01*
X150307728Y-130509922D01*
X150336638Y-130499140D01*
X150356329Y-130491797D01*
X150356329Y-130491796D01*
X150356331Y-130491796D01*
X150360189Y-130488907D01*
X150382995Y-130475375D01*
X150387373Y-130473377D01*
X150426564Y-130439416D01*
X150430014Y-130436637D01*
X150432930Y-130434453D01*
X150442593Y-130427221D01*
X150453720Y-130416092D01*
X150456925Y-130413109D01*
X150496143Y-130379128D01*
X150498751Y-130375068D01*
X150515381Y-130354431D01*
X151944431Y-128925381D01*
X151965068Y-128908751D01*
X151969128Y-128906143D01*
X152003096Y-128866939D01*
X152006107Y-128863706D01*
X152017220Y-128852594D01*
X152026647Y-128839998D01*
X152029411Y-128836570D01*
X152063375Y-128797376D01*
X152063375Y-128797374D01*
X152063377Y-128797373D01*
X152065377Y-128792992D01*
X152078911Y-128770183D01*
X152081795Y-128766331D01*
X152099920Y-128717734D01*
X152101613Y-128713648D01*
X152105061Y-128706096D01*
X152123165Y-128666457D01*
X152123851Y-128661683D01*
X152130407Y-128635996D01*
X152132091Y-128631483D01*
X152132091Y-128631478D01*
X152132092Y-128631477D01*
X152134523Y-128597470D01*
X152135791Y-128579727D01*
X152136258Y-128575385D01*
X152138500Y-128559799D01*
X152138500Y-128544083D01*
X152138658Y-128539658D01*
X152139444Y-128528676D01*
X152142358Y-128487927D01*
X152141334Y-128483219D01*
X152138500Y-128456862D01*
X152138500Y-127512676D01*
X152158185Y-127445637D01*
X152174819Y-127424995D01*
X153840995Y-125758819D01*
X153902318Y-125725334D01*
X153928676Y-125722500D01*
X156967324Y-125722500D01*
X157034363Y-125742185D01*
X157055005Y-125758819D01*
X158260614Y-126964428D01*
X158277246Y-126985066D01*
X158279854Y-126989125D01*
X158279857Y-126989128D01*
X158319067Y-127023103D01*
X158322283Y-127026097D01*
X158333407Y-127037221D01*
X158333412Y-127037224D01*
X158333417Y-127037229D01*
X158345979Y-127046633D01*
X158349427Y-127049411D01*
X158366672Y-127064353D01*
X158388627Y-127083377D01*
X158393010Y-127085379D01*
X158415807Y-127098905D01*
X158419669Y-127101796D01*
X158468295Y-127119932D01*
X158472351Y-127121612D01*
X158489646Y-127129511D01*
X158519540Y-127143164D01*
X158519541Y-127143164D01*
X158519543Y-127143165D01*
X158524312Y-127143850D01*
X158550002Y-127150407D01*
X158554517Y-127152091D01*
X158606258Y-127155791D01*
X158610657Y-127156264D01*
X158626201Y-127158500D01*
X158641906Y-127158500D01*
X158646328Y-127158657D01*
X158698073Y-127162359D01*
X158702785Y-127161334D01*
X158729143Y-127158500D01*
X166136857Y-127158500D01*
X166163215Y-127161334D01*
X166167927Y-127162359D01*
X166219671Y-127158657D01*
X166224094Y-127158500D01*
X166239799Y-127158500D01*
X166255342Y-127156264D01*
X166259740Y-127155791D01*
X166311483Y-127152091D01*
X166315992Y-127150408D01*
X166341685Y-127143850D01*
X166346457Y-127143165D01*
X166393646Y-127121613D01*
X166397736Y-127119920D01*
X166426638Y-127109140D01*
X166446329Y-127101797D01*
X166446329Y-127101796D01*
X166446331Y-127101796D01*
X166450189Y-127098907D01*
X166472995Y-127085375D01*
X166477373Y-127083377D01*
X166516571Y-127049411D01*
X166520014Y-127046637D01*
X166522930Y-127044453D01*
X166532593Y-127037221D01*
X166543720Y-127026092D01*
X166546925Y-127023109D01*
X166586143Y-126989128D01*
X166588751Y-126985068D01*
X166605381Y-126964431D01*
X169216431Y-124353381D01*
X169237068Y-124336751D01*
X169241128Y-124334143D01*
X169275109Y-124294925D01*
X169278092Y-124291720D01*
X169289221Y-124280593D01*
X169298637Y-124268014D01*
X169301417Y-124264564D01*
X169335377Y-124225373D01*
X169337375Y-124220995D01*
X169350907Y-124198189D01*
X169353796Y-124194331D01*
X169371922Y-124145728D01*
X169373614Y-124141645D01*
X169395165Y-124094457D01*
X169395850Y-124089685D01*
X169402409Y-124063992D01*
X169404091Y-124059483D01*
X169407791Y-124007740D01*
X169408265Y-124003340D01*
X169410500Y-123987799D01*
X169410500Y-123972094D01*
X169410658Y-123967669D01*
X169410975Y-123963236D01*
X169414359Y-123915927D01*
X169413332Y-123911206D01*
X169410500Y-123884858D01*
X169410500Y-121162675D01*
X169430185Y-121095636D01*
X169446814Y-121074998D01*
X170486431Y-120035381D01*
X170507068Y-120018751D01*
X170511128Y-120016143D01*
X170545109Y-119976925D01*
X170548092Y-119973720D01*
X170559221Y-119962593D01*
X170568637Y-119950014D01*
X170571417Y-119946564D01*
X170590767Y-119924233D01*
X170605377Y-119907373D01*
X170607375Y-119902995D01*
X170620907Y-119880189D01*
X170623796Y-119876331D01*
X170641922Y-119827728D01*
X170643614Y-119823645D01*
X170665165Y-119776457D01*
X170665850Y-119771685D01*
X170672409Y-119745992D01*
X170674091Y-119741483D01*
X170677791Y-119689740D01*
X170678265Y-119685340D01*
X170680500Y-119669799D01*
X170680500Y-119654094D01*
X170680658Y-119649669D01*
X170681779Y-119633999D01*
X170684359Y-119597927D01*
X170683332Y-119593206D01*
X170680500Y-119566858D01*
X170680500Y-117606676D01*
X170700185Y-117539637D01*
X170716819Y-117518995D01*
X171112995Y-117122819D01*
X171174318Y-117089334D01*
X171200676Y-117086500D01*
X187130857Y-117086500D01*
X187157215Y-117089334D01*
X187161927Y-117090359D01*
X187213671Y-117086657D01*
X187218094Y-117086500D01*
X187233799Y-117086500D01*
X187249342Y-117084264D01*
X187253740Y-117083791D01*
X187305483Y-117080091D01*
X187309992Y-117078408D01*
X187335685Y-117071850D01*
X187340457Y-117071165D01*
X187387646Y-117049613D01*
X187391728Y-117047922D01*
X187420638Y-117037140D01*
X187440329Y-117029797D01*
X187440329Y-117029796D01*
X187440331Y-117029796D01*
X187444189Y-117026907D01*
X187466995Y-117013375D01*
X187471373Y-117011377D01*
X187510564Y-116977416D01*
X187514014Y-116974637D01*
X187516930Y-116972453D01*
X187526593Y-116965221D01*
X187537720Y-116954092D01*
X187540925Y-116951109D01*
X187580143Y-116917128D01*
X187582751Y-116913068D01*
X187599381Y-116892431D01*
X191060431Y-113431381D01*
X191081068Y-113414751D01*
X191085128Y-113412143D01*
X191119096Y-113372939D01*
X191122107Y-113369706D01*
X191133220Y-113358594D01*
X191142647Y-113345998D01*
X191145411Y-113342570D01*
X191179375Y-113303376D01*
X191179375Y-113303374D01*
X191179377Y-113303373D01*
X191181377Y-113298992D01*
X191194911Y-113276183D01*
X191197795Y-113272331D01*
X191215920Y-113223734D01*
X191217613Y-113219648D01*
X191221061Y-113212096D01*
X191239165Y-113172457D01*
X191239851Y-113167683D01*
X191246407Y-113141996D01*
X191248091Y-113137483D01*
X191248091Y-113137478D01*
X191248092Y-113137477D01*
X191249461Y-113118314D01*
X191251791Y-113085727D01*
X191252258Y-113081385D01*
X191254500Y-113065799D01*
X191254500Y-113050083D01*
X191254658Y-113045658D01*
X191258358Y-112993927D01*
X191258357Y-112993923D01*
X191257334Y-112989219D01*
X191254500Y-112962862D01*
X191254500Y-101604675D01*
X191274185Y-101537636D01*
X191290814Y-101516999D01*
X193786431Y-99021381D01*
X193807068Y-99004751D01*
X193811128Y-99002143D01*
X193845109Y-98962925D01*
X193848092Y-98959720D01*
X193859221Y-98948593D01*
X193868637Y-98936014D01*
X193871417Y-98932564D01*
X193905377Y-98893373D01*
X193907375Y-98888995D01*
X193920907Y-98866189D01*
X193923796Y-98862331D01*
X193941922Y-98813728D01*
X193943614Y-98809645D01*
X193952913Y-98789283D01*
X193965165Y-98762457D01*
X193965850Y-98757685D01*
X193972409Y-98731992D01*
X193974091Y-98727483D01*
X193977791Y-98675740D01*
X193978265Y-98671340D01*
X193979150Y-98665190D01*
X193980500Y-98655799D01*
X193980500Y-98640094D01*
X193980658Y-98635669D01*
X193981619Y-98622231D01*
X193984359Y-98583927D01*
X193983332Y-98579206D01*
X193980500Y-98552858D01*
X193980500Y-97882500D01*
X194000185Y-97815461D01*
X194052989Y-97769706D01*
X194104500Y-97758500D01*
X195254676Y-97758500D01*
X195254677Y-97758499D01*
X195327740Y-97743966D01*
X195410601Y-97688601D01*
X195465966Y-97605740D01*
X195480500Y-97532674D01*
X195480500Y-93983326D01*
X195480500Y-93983323D01*
X195480499Y-93983321D01*
X195465967Y-93910264D01*
X195465966Y-93910260D01*
X195432482Y-93860147D01*
X195410601Y-93827399D01*
X195354988Y-93790240D01*
X195327739Y-93772033D01*
X195327735Y-93772032D01*
X195254677Y-93757500D01*
X195254674Y-93757500D01*
X192492676Y-93757500D01*
X192425637Y-93737815D01*
X192404995Y-93721181D01*
X191595385Y-92911571D01*
X191578750Y-92890928D01*
X191576145Y-92886874D01*
X191576142Y-92886871D01*
X191569147Y-92880810D01*
X191536932Y-92852896D01*
X191533700Y-92849886D01*
X191522596Y-92838782D01*
X191522588Y-92838775D01*
X191510013Y-92829362D01*
X191506583Y-92826598D01*
X191467373Y-92792623D01*
X191467371Y-92792622D01*
X191467367Y-92792619D01*
X191462983Y-92790617D01*
X191440194Y-92777096D01*
X191436331Y-92774204D01*
X191436329Y-92774203D01*
X191387716Y-92756071D01*
X191383642Y-92754383D01*
X191336457Y-92732835D01*
X191336455Y-92732834D01*
X191331682Y-92732148D01*
X191306000Y-92725593D01*
X191301485Y-92723909D01*
X191249740Y-92720207D01*
X191245343Y-92719734D01*
X191229799Y-92717500D01*
X191214094Y-92717500D01*
X191209671Y-92717342D01*
X191192083Y-92716084D01*
X191157929Y-92713641D01*
X191157925Y-92713641D01*
X191153215Y-92714666D01*
X191126857Y-92717500D01*
X150577044Y-92717500D01*
X150510005Y-92697815D01*
X150494820Y-92686318D01*
X150486240Y-92678717D01*
X150486238Y-92678716D01*
X150486237Y-92678715D01*
X150486233Y-92678712D01*
X150346365Y-92605303D01*
X150192986Y-92567500D01*
X150192985Y-92567500D01*
X150035015Y-92567500D01*
X150035014Y-92567500D01*
X149881634Y-92605303D01*
X149741762Y-92678715D01*
X149623516Y-92783471D01*
X149533781Y-92913475D01*
X149533780Y-92913476D01*
X149477762Y-93061181D01*
X149458722Y-93217999D01*
X149458722Y-93218000D01*
X149477762Y-93374818D01*
X149533780Y-93522523D01*
X149623517Y-93652530D01*
X149741760Y-93757283D01*
X149753860Y-93763633D01*
X149881634Y-93830696D01*
X150035014Y-93868500D01*
X150035015Y-93868500D01*
X150192985Y-93868500D01*
X150346365Y-93830696D01*
X150486233Y-93757287D01*
X150486234Y-93757285D01*
X150486240Y-93757283D01*
X150494818Y-93749683D01*
X150558050Y-93719963D01*
X150577044Y-93718500D01*
X184352883Y-93718500D01*
X184419922Y-93738185D01*
X184465677Y-93790989D01*
X184475621Y-93860147D01*
X184446596Y-93923703D01*
X184387818Y-93961477D01*
X184379844Y-93963533D01*
X184300453Y-93981217D01*
X184300446Y-93981220D01*
X184047439Y-94077987D01*
X183811226Y-94210557D01*
X183811224Y-94210558D01*
X183811223Y-94210559D01*
X183777864Y-94236318D01*
X183596822Y-94376112D01*
X183408822Y-94571109D01*
X183408816Y-94571116D01*
X183251202Y-94791419D01*
X183251199Y-94791424D01*
X183127350Y-95032309D01*
X183127343Y-95032327D01*
X183039884Y-95288685D01*
X183039882Y-95288695D01*
X183005919Y-95472572D01*
X182990681Y-95555068D01*
X182990680Y-95555075D01*
X182980787Y-95825763D01*
X183010413Y-96095013D01*
X183010415Y-96095024D01*
X183070028Y-96323046D01*
X183078928Y-96357088D01*
X183184870Y-96606390D01*
X183256998Y-96724575D01*
X183325979Y-96837605D01*
X183325986Y-96837615D01*
X183499253Y-97045819D01*
X183499259Y-97045824D01*
X183604240Y-97139887D01*
X183700998Y-97226582D01*
X183926910Y-97376044D01*
X184172176Y-97491020D01*
X184172183Y-97491022D01*
X184172185Y-97491023D01*
X184431557Y-97569057D01*
X184431564Y-97569058D01*
X184431569Y-97569060D01*
X184699561Y-97608500D01*
X184699566Y-97608500D01*
X184902636Y-97608500D01*
X184954133Y-97604730D01*
X185105156Y-97593677D01*
X185217758Y-97568593D01*
X185369546Y-97534782D01*
X185369548Y-97534781D01*
X185369553Y-97534780D01*
X185622558Y-97438014D01*
X185858777Y-97305441D01*
X186073177Y-97139888D01*
X186261186Y-96944881D01*
X186418799Y-96724579D01*
X186492787Y-96580669D01*
X186542649Y-96483690D01*
X186542651Y-96483684D01*
X186542656Y-96483675D01*
X186630118Y-96227305D01*
X186679319Y-95960933D01*
X186689212Y-95690235D01*
X186659586Y-95420982D01*
X186591072Y-95158912D01*
X186485130Y-94909610D01*
X186344018Y-94678390D01*
X186340107Y-94673690D01*
X186170746Y-94470180D01*
X186170740Y-94470175D01*
X185969002Y-94289418D01*
X185743092Y-94139957D01*
X185743090Y-94139956D01*
X185497824Y-94024980D01*
X185497819Y-94024978D01*
X185497814Y-94024976D01*
X185285971Y-93961242D01*
X185227445Y-93923078D01*
X185198843Y-93859331D01*
X185209245Y-93790240D01*
X185255350Y-93737742D01*
X185321695Y-93718500D01*
X190935324Y-93718500D01*
X191002363Y-93738185D01*
X191023005Y-93754819D01*
X191443181Y-94174995D01*
X191476666Y-94236318D01*
X191479500Y-94262676D01*
X191479500Y-97532678D01*
X191494032Y-97605735D01*
X191494033Y-97605739D01*
X191494034Y-97605740D01*
X191549399Y-97688601D01*
X191625667Y-97739561D01*
X191632260Y-97743966D01*
X191632264Y-97743967D01*
X191705321Y-97758499D01*
X191705324Y-97758500D01*
X191705326Y-97758500D01*
X192855500Y-97758500D01*
X192922539Y-97778185D01*
X192968294Y-97830989D01*
X192979500Y-97882500D01*
X192979500Y-98361323D01*
X192959815Y-98428362D01*
X192943181Y-98449004D01*
X190447568Y-100944616D01*
X190426938Y-100961243D01*
X190422876Y-100963854D01*
X190422867Y-100963861D01*
X190388905Y-101003055D01*
X190385892Y-101006291D01*
X190374781Y-101017402D01*
X190365354Y-101029996D01*
X190362587Y-101033428D01*
X190359144Y-101037403D01*
X190328623Y-101072626D01*
X190328617Y-101072636D01*
X190326615Y-101077020D01*
X190313100Y-101099799D01*
X190310206Y-101103664D01*
X190310200Y-101103675D01*
X190292078Y-101152264D01*
X190290385Y-101156353D01*
X190268835Y-101203543D01*
X190268833Y-101203550D01*
X190268146Y-101208327D01*
X190261598Y-101233986D01*
X190259910Y-101238513D01*
X190259909Y-101238517D01*
X190256207Y-101290260D01*
X190255734Y-101294656D01*
X190253500Y-101310199D01*
X190253500Y-101325904D01*
X190253342Y-101330329D01*
X190249641Y-101382069D01*
X190249641Y-101382073D01*
X190250666Y-101386785D01*
X190253500Y-101413143D01*
X190253500Y-112771324D01*
X190233815Y-112838363D01*
X190217181Y-112859005D01*
X187027005Y-116049181D01*
X186965682Y-116082666D01*
X186939324Y-116085500D01*
X171009143Y-116085500D01*
X170982785Y-116082666D01*
X170978074Y-116081641D01*
X170978070Y-116081641D01*
X170939552Y-116084396D01*
X170926328Y-116085342D01*
X170921906Y-116085500D01*
X170906199Y-116085500D01*
X170890656Y-116087734D01*
X170886260Y-116088207D01*
X170834517Y-116091909D01*
X170834513Y-116091910D01*
X170829986Y-116093598D01*
X170804327Y-116100146D01*
X170799550Y-116100833D01*
X170799543Y-116100835D01*
X170752353Y-116122385D01*
X170748264Y-116124078D01*
X170699675Y-116142200D01*
X170699664Y-116142206D01*
X170695799Y-116145100D01*
X170673020Y-116158615D01*
X170668636Y-116160617D01*
X170668626Y-116160623D01*
X170644676Y-116181375D01*
X170629428Y-116194587D01*
X170625996Y-116197354D01*
X170613402Y-116206781D01*
X170602291Y-116217892D01*
X170599055Y-116220905D01*
X170559861Y-116254867D01*
X170559854Y-116254876D01*
X170557243Y-116258938D01*
X170540616Y-116279568D01*
X169873568Y-116946616D01*
X169852938Y-116963243D01*
X169848876Y-116965854D01*
X169848867Y-116965861D01*
X169814905Y-117005055D01*
X169811892Y-117008291D01*
X169800781Y-117019402D01*
X169791354Y-117031996D01*
X169788587Y-117035428D01*
X169777765Y-117047919D01*
X169754623Y-117074626D01*
X169754617Y-117074636D01*
X169752615Y-117079020D01*
X169739100Y-117101799D01*
X169736206Y-117105664D01*
X169736200Y-117105675D01*
X169718078Y-117154264D01*
X169716385Y-117158353D01*
X169694835Y-117205543D01*
X169694833Y-117205550D01*
X169694146Y-117210327D01*
X169687598Y-117235986D01*
X169685910Y-117240513D01*
X169685909Y-117240517D01*
X169682207Y-117292260D01*
X169681734Y-117296656D01*
X169679500Y-117312199D01*
X169679500Y-117327904D01*
X169679342Y-117332329D01*
X169675641Y-117384069D01*
X169675641Y-117384073D01*
X169676666Y-117388785D01*
X169679500Y-117415143D01*
X169679500Y-119375323D01*
X169659815Y-119442362D01*
X169643181Y-119463004D01*
X168603568Y-120502616D01*
X168582938Y-120519243D01*
X168578876Y-120521854D01*
X168578867Y-120521861D01*
X168544905Y-120561055D01*
X168541892Y-120564291D01*
X168530781Y-120575402D01*
X168521354Y-120587996D01*
X168518587Y-120591428D01*
X168505375Y-120606676D01*
X168484623Y-120630626D01*
X168484617Y-120630636D01*
X168482615Y-120635020D01*
X168469100Y-120657799D01*
X168466206Y-120661664D01*
X168466200Y-120661675D01*
X168448078Y-120710264D01*
X168446385Y-120714353D01*
X168424835Y-120761543D01*
X168424833Y-120761550D01*
X168424146Y-120766327D01*
X168417598Y-120791986D01*
X168415910Y-120796513D01*
X168415909Y-120796517D01*
X168412207Y-120848260D01*
X168411734Y-120852656D01*
X168409500Y-120868199D01*
X168409500Y-120883904D01*
X168409342Y-120888329D01*
X168405641Y-120940069D01*
X168405641Y-120940073D01*
X168406666Y-120944785D01*
X168409500Y-120971143D01*
X168409500Y-123693324D01*
X168389815Y-123760363D01*
X168373181Y-123781005D01*
X166033005Y-126121181D01*
X165971682Y-126154666D01*
X165945324Y-126157500D01*
X158920676Y-126157500D01*
X158853637Y-126137815D01*
X158832995Y-126121181D01*
X157627385Y-124915571D01*
X157610750Y-124894928D01*
X157608145Y-124890874D01*
X157608142Y-124890871D01*
X157601147Y-124884810D01*
X157568932Y-124856896D01*
X157565700Y-124853886D01*
X157554596Y-124842782D01*
X157554588Y-124842775D01*
X157542013Y-124833362D01*
X157538583Y-124830598D01*
X157499373Y-124796623D01*
X157499371Y-124796622D01*
X157499367Y-124796619D01*
X157494983Y-124794617D01*
X157472194Y-124781096D01*
X157468331Y-124778204D01*
X157468329Y-124778203D01*
X157419716Y-124760071D01*
X157415642Y-124758383D01*
X157368457Y-124736835D01*
X157368455Y-124736834D01*
X157363682Y-124736148D01*
X157338000Y-124729593D01*
X157333485Y-124727909D01*
X157281740Y-124724207D01*
X157277343Y-124723734D01*
X157261799Y-124721500D01*
X157246094Y-124721500D01*
X157241671Y-124721342D01*
X157224083Y-124720084D01*
X157189929Y-124717641D01*
X157189925Y-124717641D01*
X157185215Y-124718666D01*
X157158857Y-124721500D01*
X153737143Y-124721500D01*
X153710785Y-124718666D01*
X153706074Y-124717641D01*
X153706070Y-124717641D01*
X153667552Y-124720396D01*
X153654328Y-124721342D01*
X153649906Y-124721500D01*
X153634199Y-124721500D01*
X153618656Y-124723734D01*
X153614260Y-124724207D01*
X153562517Y-124727909D01*
X153562513Y-124727910D01*
X153557986Y-124729598D01*
X153532327Y-124736146D01*
X153527550Y-124736833D01*
X153527543Y-124736835D01*
X153480353Y-124758385D01*
X153476264Y-124760078D01*
X153427675Y-124778200D01*
X153427664Y-124778206D01*
X153423799Y-124781100D01*
X153401020Y-124794615D01*
X153396636Y-124796617D01*
X153396626Y-124796623D01*
X153372676Y-124817375D01*
X153357433Y-124830584D01*
X153353996Y-124833354D01*
X153341402Y-124842781D01*
X153330291Y-124853892D01*
X153327055Y-124856905D01*
X153287861Y-124890867D01*
X153287854Y-124890876D01*
X153285243Y-124894938D01*
X153268616Y-124915568D01*
X151331568Y-126852616D01*
X151310938Y-126869243D01*
X151306876Y-126871854D01*
X151306867Y-126871861D01*
X151272905Y-126911055D01*
X151269892Y-126914291D01*
X151258781Y-126925402D01*
X151249354Y-126937996D01*
X151246587Y-126941428D01*
X151233375Y-126956676D01*
X151212623Y-126980626D01*
X151212617Y-126980636D01*
X151210615Y-126985020D01*
X151197100Y-127007799D01*
X151194206Y-127011664D01*
X151194200Y-127011675D01*
X151176078Y-127060264D01*
X151174385Y-127064353D01*
X151152835Y-127111543D01*
X151152833Y-127111550D01*
X151152146Y-127116327D01*
X151145598Y-127141986D01*
X151143910Y-127146513D01*
X151143909Y-127146517D01*
X151140207Y-127198260D01*
X151139734Y-127202656D01*
X151137500Y-127218199D01*
X151137500Y-127233904D01*
X151137342Y-127238329D01*
X151133641Y-127290069D01*
X151133641Y-127290073D01*
X151134666Y-127294785D01*
X151137500Y-127321143D01*
X151137500Y-128265324D01*
X151117815Y-128332363D01*
X151101181Y-128353005D01*
X149943005Y-129511181D01*
X149881682Y-129544666D01*
X149855324Y-129547500D01*
X145931061Y-129547500D01*
X145904703Y-129544666D01*
X145899992Y-129543641D01*
X145899988Y-129543641D01*
X145861470Y-129546396D01*
X145848246Y-129547342D01*
X145843824Y-129547500D01*
X145828117Y-129547500D01*
X145812574Y-129549734D01*
X145808178Y-129550207D01*
X145756435Y-129553909D01*
X145756431Y-129553910D01*
X145751904Y-129555598D01*
X145726245Y-129562146D01*
X145721468Y-129562833D01*
X145721461Y-129562835D01*
X145674271Y-129584385D01*
X145670182Y-129586078D01*
X145621593Y-129604200D01*
X145621582Y-129604206D01*
X145617717Y-129607100D01*
X145594938Y-129620615D01*
X145590554Y-129622617D01*
X145590544Y-129622623D01*
X145566594Y-129643375D01*
X145551346Y-129656587D01*
X145547914Y-129659354D01*
X145535320Y-129668781D01*
X145524209Y-129679892D01*
X145520973Y-129682905D01*
X145481779Y-129716867D01*
X145481772Y-129716876D01*
X145479161Y-129720938D01*
X145462534Y-129741568D01*
X142390923Y-132813181D01*
X142329600Y-132846666D01*
X142303242Y-132849500D01*
X133886500Y-132849500D01*
X133819461Y-132829815D01*
X133773706Y-132777011D01*
X133762500Y-132725500D01*
X133762500Y-131410676D01*
X133782185Y-131343637D01*
X133798819Y-131322995D01*
X133968191Y-131153623D01*
X134137783Y-130984030D01*
X134195787Y-130951316D01*
X134344365Y-130914696D01*
X134484240Y-130841283D01*
X134602483Y-130736530D01*
X134692220Y-130606523D01*
X134748237Y-130458818D01*
X134767278Y-130302000D01*
X134762653Y-130263905D01*
X134748237Y-130145181D01*
X134693830Y-130001723D01*
X134692220Y-129997477D01*
X134602483Y-129867470D01*
X134484240Y-129762717D01*
X134484238Y-129762716D01*
X134484237Y-129762715D01*
X134344365Y-129689303D01*
X134190986Y-129651500D01*
X134190985Y-129651500D01*
X134033015Y-129651500D01*
X134033014Y-129651500D01*
X133879634Y-129689303D01*
X133739762Y-129762715D01*
X133621516Y-129867471D01*
X133531781Y-129997475D01*
X133531780Y-129997476D01*
X133475763Y-130145178D01*
X133475762Y-130145182D01*
X133469139Y-130199728D01*
X133441516Y-130263905D01*
X133433724Y-130272460D01*
X132955568Y-130750616D01*
X132934938Y-130767243D01*
X132930876Y-130769854D01*
X132930867Y-130769861D01*
X132896905Y-130809055D01*
X132893892Y-130812291D01*
X132882781Y-130823402D01*
X132873354Y-130835996D01*
X132870587Y-130839428D01*
X132868981Y-130841283D01*
X132836623Y-130878626D01*
X132836617Y-130878636D01*
X132834615Y-130883020D01*
X132821100Y-130905799D01*
X132818206Y-130909664D01*
X132818200Y-130909675D01*
X132800078Y-130958264D01*
X132798385Y-130962353D01*
X132776835Y-131009543D01*
X132776833Y-131009550D01*
X132776146Y-131014327D01*
X132769598Y-131039986D01*
X132767910Y-131044513D01*
X132767909Y-131044517D01*
X132764207Y-131096260D01*
X132763734Y-131100656D01*
X132761500Y-131116199D01*
X132761500Y-131131904D01*
X132761342Y-131136329D01*
X132757641Y-131188069D01*
X132757641Y-131188073D01*
X132758666Y-131192785D01*
X132761500Y-131219143D01*
X132761500Y-132940858D01*
X132758667Y-132967206D01*
X132757641Y-132971927D01*
X132757641Y-132971929D01*
X132757641Y-132971930D01*
X105984132Y-132971930D01*
X105858789Y-132796377D01*
X105856957Y-132793662D01*
X105747202Y-132621382D01*
X105636207Y-132435107D01*
X105634473Y-132431998D01*
X105562853Y-132294415D01*
X124084773Y-132294415D01*
X124094696Y-132452137D01*
X124094696Y-132452140D01*
X124129956Y-132560655D01*
X124143533Y-132602441D01*
X124228214Y-132735877D01*
X124343418Y-132844062D01*
X124343420Y-132844063D01*
X124343422Y-132844065D01*
X124481904Y-132920195D01*
X124481908Y-132920197D01*
X124634981Y-132959500D01*
X125393257Y-132959500D01*
X125408877Y-132961224D01*
X125408904Y-132960939D01*
X125416660Y-132961671D01*
X125416667Y-132961673D01*
X125485814Y-132959500D01*
X125515350Y-132959500D01*
X125522228Y-132958630D01*
X125528041Y-132958172D01*
X125574627Y-132956709D01*
X125593869Y-132951117D01*
X125612912Y-132947174D01*
X125632792Y-132944664D01*
X125676122Y-132927507D01*
X125681646Y-132925617D01*
X125685396Y-132924527D01*
X125726390Y-132912618D01*
X125743629Y-132902422D01*
X125761103Y-132893862D01*
X125779727Y-132886488D01*
X125779727Y-132886487D01*
X125779732Y-132886486D01*
X125817449Y-132859082D01*
X125822305Y-132855892D01*
X125862420Y-132832170D01*
X125876589Y-132817999D01*
X125891379Y-132805368D01*
X125907587Y-132793594D01*
X125937299Y-132757676D01*
X125941212Y-132753376D01*
X126367785Y-132326803D01*
X126380041Y-132316987D01*
X126379858Y-132316765D01*
X126385875Y-132311787D01*
X126385874Y-132311787D01*
X126385877Y-132311786D01*
X126425310Y-132269794D01*
X126433227Y-132261364D01*
X126443671Y-132250918D01*
X126454120Y-132240471D01*
X126458379Y-132234978D01*
X126462152Y-132230561D01*
X126494062Y-132196582D01*
X126503713Y-132179024D01*
X126514396Y-132162761D01*
X126526673Y-132146936D01*
X126545185Y-132104153D01*
X126547738Y-132098941D01*
X126570197Y-132058092D01*
X126575180Y-132038680D01*
X126581481Y-132020280D01*
X126589437Y-132001896D01*
X126596729Y-131955852D01*
X126597906Y-131950171D01*
X126609500Y-131905019D01*
X126609500Y-131884983D01*
X126611027Y-131865582D01*
X126611212Y-131864414D01*
X126614160Y-131845804D01*
X126609775Y-131799418D01*
X126609500Y-131793580D01*
X126609500Y-124460000D01*
X128451534Y-124460000D01*
X128471312Y-124610234D01*
X128471313Y-124610236D01*
X128523751Y-124736833D01*
X128529302Y-124750233D01*
X128621549Y-124870451D01*
X128741767Y-124962698D01*
X128881764Y-125020687D01*
X128956882Y-125030576D01*
X129031999Y-125040466D01*
X129032000Y-125040466D01*
X129032001Y-125040466D01*
X129082078Y-125033873D01*
X129182236Y-125020687D01*
X129322233Y-124962698D01*
X129442451Y-124870451D01*
X129534698Y-124750233D01*
X129592687Y-124610236D01*
X129612466Y-124460000D01*
X129592687Y-124309764D01*
X129534698Y-124169767D01*
X129442451Y-124049549D01*
X129442448Y-124049547D01*
X129437503Y-124043102D01*
X129438946Y-124041994D01*
X129410334Y-123989594D01*
X129407500Y-123963236D01*
X129407500Y-120856898D01*
X129427185Y-120789859D01*
X129443814Y-120769222D01*
X131232251Y-118980784D01*
X131293574Y-118947300D01*
X131309943Y-118945539D01*
X131309942Y-118945527D01*
X131365197Y-118938252D01*
X131468236Y-118924687D01*
X131608233Y-118866698D01*
X131728451Y-118774451D01*
X131820698Y-118654233D01*
X131878687Y-118514236D01*
X131898466Y-118364000D01*
X131878687Y-118213764D01*
X131820698Y-118073767D01*
X131728451Y-117953549D01*
X131608233Y-117861302D01*
X131608229Y-117861300D01*
X131468236Y-117803313D01*
X131468234Y-117803312D01*
X131318001Y-117783534D01*
X131317999Y-117783534D01*
X131167765Y-117803312D01*
X131167763Y-117803313D01*
X131027770Y-117861300D01*
X130907549Y-117953549D01*
X130815300Y-118073770D01*
X130757313Y-118213763D01*
X130757313Y-118213764D01*
X130736473Y-118372058D01*
X130734669Y-118371820D01*
X130717849Y-118429104D01*
X130701215Y-118449746D01*
X128803108Y-120347852D01*
X128783254Y-120363976D01*
X128774165Y-120369914D01*
X128774164Y-120369915D01*
X128752363Y-120397923D01*
X128747286Y-120403674D01*
X128744484Y-120406477D01*
X128744474Y-120406488D01*
X128730905Y-120425495D01*
X128697192Y-120468808D01*
X128693447Y-120475729D01*
X128689988Y-120482804D01*
X128674329Y-120535403D01*
X128656500Y-120587338D01*
X128655206Y-120595092D01*
X128654231Y-120602911D01*
X128656500Y-120657755D01*
X128656500Y-123963236D01*
X128636815Y-124030275D01*
X128626485Y-124043093D01*
X128626497Y-124043102D01*
X128621551Y-124049547D01*
X128621549Y-124049549D01*
X128529302Y-124169767D01*
X128529300Y-124169770D01*
X128471313Y-124309763D01*
X128471312Y-124309765D01*
X128451534Y-124459999D01*
X128451534Y-124460000D01*
X126609500Y-124460000D01*
X126609500Y-116214468D01*
X126629185Y-116147429D01*
X126645819Y-116126787D01*
X126998463Y-115774143D01*
X127383788Y-115388817D01*
X127396042Y-115379002D01*
X127395859Y-115378780D01*
X127401867Y-115373808D01*
X127401877Y-115373802D01*
X127426108Y-115347997D01*
X127486349Y-115312603D01*
X127556163Y-115315396D01*
X127613384Y-115355490D01*
X127639845Y-115420155D01*
X127640500Y-115432882D01*
X127640500Y-119137236D01*
X127620815Y-119204275D01*
X127610485Y-119217093D01*
X127610497Y-119217102D01*
X127605551Y-119223547D01*
X127605549Y-119223549D01*
X127513302Y-119343767D01*
X127513300Y-119343770D01*
X127455313Y-119483763D01*
X127455312Y-119483765D01*
X127435534Y-119633999D01*
X127435534Y-119634000D01*
X127455312Y-119784234D01*
X127455313Y-119784236D01*
X127506318Y-119907374D01*
X127513302Y-119924233D01*
X127605549Y-120044451D01*
X127725767Y-120136698D01*
X127865764Y-120194687D01*
X127940882Y-120204576D01*
X128015999Y-120214466D01*
X128016000Y-120214466D01*
X128016001Y-120214466D01*
X128066078Y-120207873D01*
X128166236Y-120194687D01*
X128306233Y-120136698D01*
X128426451Y-120044451D01*
X128518698Y-119924233D01*
X128576687Y-119784236D01*
X128596466Y-119634000D01*
X128576687Y-119483764D01*
X128518698Y-119343767D01*
X128426451Y-119223549D01*
X128426448Y-119223547D01*
X128421503Y-119217102D01*
X128422946Y-119215994D01*
X128394334Y-119163594D01*
X128391500Y-119137236D01*
X128391500Y-112728898D01*
X128411185Y-112661859D01*
X128427814Y-112641222D01*
X131228889Y-109840146D01*
X131248746Y-109824022D01*
X131257836Y-109818084D01*
X131279638Y-109790071D01*
X131284733Y-109784303D01*
X131287519Y-109781518D01*
X131287528Y-109781506D01*
X131301086Y-109762516D01*
X131334807Y-109719192D01*
X131338547Y-109712278D01*
X131342006Y-109705203D01*
X131342010Y-109705199D01*
X131351407Y-109673636D01*
X131357672Y-109652593D01*
X131375500Y-109600661D01*
X131376791Y-109592924D01*
X131377768Y-109585086D01*
X131375500Y-109530244D01*
X131375500Y-108342202D01*
X131395185Y-108275163D01*
X131417274Y-108249386D01*
X131490482Y-108184531D01*
X131501605Y-108168417D01*
X131580220Y-108054523D01*
X131636237Y-107906818D01*
X131655278Y-107750000D01*
X131636237Y-107593182D01*
X131580220Y-107445477D01*
X131490483Y-107315470D01*
X131372240Y-107210717D01*
X131372238Y-107210716D01*
X131372237Y-107210715D01*
X131232365Y-107137303D01*
X131078986Y-107099500D01*
X131078985Y-107099500D01*
X130921015Y-107099500D01*
X130921014Y-107099500D01*
X130767634Y-107137303D01*
X130627762Y-107210715D01*
X130509516Y-107315471D01*
X130419781Y-107445475D01*
X130419780Y-107445476D01*
X130363762Y-107593181D01*
X130344722Y-107749999D01*
X130344722Y-107750000D01*
X130363762Y-107906818D01*
X130419780Y-108054523D01*
X130419781Y-108054524D01*
X130509517Y-108184531D01*
X130582726Y-108249386D01*
X130619853Y-108308574D01*
X130624500Y-108342202D01*
X130624500Y-109331099D01*
X130604815Y-109398138D01*
X130588181Y-109418780D01*
X127837181Y-112169780D01*
X127775858Y-112203265D01*
X127706166Y-112198281D01*
X127650233Y-112156409D01*
X127625816Y-112090945D01*
X127625500Y-112082099D01*
X127625500Y-110588322D01*
X127645185Y-110521283D01*
X127666369Y-110496314D01*
X127746213Y-110424179D01*
X127866649Y-110260167D01*
X127951605Y-110075268D01*
X127951996Y-110073586D01*
X127997602Y-109877053D01*
X127998767Y-109831055D01*
X128002756Y-109673636D01*
X127980960Y-109552031D01*
X127988508Y-109482575D01*
X128015331Y-109442481D01*
X132306431Y-105151381D01*
X132327068Y-105134751D01*
X132331128Y-105132143D01*
X132365109Y-105092925D01*
X132368092Y-105089720D01*
X132379221Y-105078593D01*
X132388637Y-105066014D01*
X132391417Y-105062564D01*
X132425377Y-105023373D01*
X132427375Y-105018995D01*
X132440907Y-104996189D01*
X132443796Y-104992331D01*
X132461922Y-104943728D01*
X132463614Y-104939645D01*
X132485165Y-104892457D01*
X132485850Y-104887685D01*
X132492409Y-104861992D01*
X132494091Y-104857483D01*
X132497791Y-104805740D01*
X132498265Y-104801340D01*
X132500500Y-104785798D01*
X132500500Y-104770094D01*
X132500658Y-104765669D01*
X132504359Y-104713927D01*
X132503332Y-104709206D01*
X132500500Y-104682858D01*
X132500500Y-101258676D01*
X132520185Y-101191637D01*
X132536819Y-101170995D01*
X132882819Y-100824995D01*
X132944142Y-100791510D01*
X133013834Y-100796494D01*
X133069767Y-100838366D01*
X133094184Y-100903830D01*
X133094500Y-100912676D01*
X133094500Y-116208002D01*
X133100338Y-116262312D01*
X133111543Y-116313817D01*
X133111545Y-116313824D01*
X133114933Y-116326174D01*
X133118779Y-116340193D01*
X133118783Y-116340203D01*
X133168105Y-116426818D01*
X133168111Y-116426827D01*
X133168112Y-116426828D01*
X133213867Y-116479632D01*
X133246641Y-116511257D01*
X133334976Y-116557465D01*
X133334977Y-116557465D01*
X133334977Y-116557466D01*
X133385105Y-116572184D01*
X133402015Y-116577150D01*
X133402019Y-116577150D01*
X133402021Y-116577151D01*
X133413652Y-116578823D01*
X133474000Y-116587500D01*
X135732806Y-116587500D01*
X135799845Y-116607185D01*
X135820487Y-116623819D01*
X136360181Y-117163513D01*
X136393666Y-117224836D01*
X136396500Y-117251194D01*
X136396500Y-118240002D01*
X136402338Y-118294312D01*
X136413543Y-118345817D01*
X136413545Y-118345824D01*
X136417212Y-118359191D01*
X136420779Y-118372193D01*
X136420783Y-118372203D01*
X136470105Y-118458818D01*
X136470111Y-118458827D01*
X136505905Y-118500136D01*
X136515867Y-118511632D01*
X136548641Y-118543257D01*
X136636976Y-118589465D01*
X136636977Y-118589465D01*
X136636977Y-118589466D01*
X136681218Y-118602456D01*
X136704015Y-118609150D01*
X136704019Y-118609150D01*
X136704021Y-118609151D01*
X136715652Y-118610823D01*
X136776000Y-118619500D01*
X136776001Y-118619500D01*
X147704000Y-118619500D01*
X147758313Y-118613661D01*
X147774440Y-118610152D01*
X147809817Y-118602457D01*
X147809817Y-118602456D01*
X147809824Y-118602455D01*
X147836198Y-118595219D01*
X147865074Y-118578775D01*
X147922818Y-118545894D01*
X147922821Y-118545891D01*
X147922828Y-118545888D01*
X147959359Y-118514234D01*
X147975629Y-118500136D01*
X147975632Y-118500133D01*
X148007257Y-118467359D01*
X148053465Y-118379024D01*
X148055470Y-118372198D01*
X148063216Y-118345817D01*
X148073150Y-118311985D01*
X148083500Y-118240000D01*
X148083500Y-116332482D01*
X148083344Y-116326174D01*
X148082583Y-116310783D01*
X148064243Y-116227568D01*
X148038037Y-116162799D01*
X148034382Y-116155670D01*
X148021316Y-116087035D01*
X148047431Y-116022229D01*
X148062502Y-116006285D01*
X148062538Y-116006252D01*
X148064483Y-116004530D01*
X148154220Y-115874523D01*
X148210237Y-115726818D01*
X148229278Y-115570000D01*
X148220176Y-115495033D01*
X148210237Y-115413181D01*
X148185516Y-115347998D01*
X148154220Y-115265477D01*
X148064483Y-115135470D01*
X148060906Y-115132301D01*
X148023781Y-115073111D01*
X148024549Y-115003246D01*
X148033257Y-114982017D01*
X148053465Y-114943386D01*
X148073150Y-114876347D01*
X148083500Y-114804362D01*
X148083500Y-114424000D01*
X148077661Y-114369687D01*
X148066455Y-114318176D01*
X148059219Y-114291802D01*
X148059216Y-114291796D01*
X148009894Y-114205181D01*
X148009888Y-114205172D01*
X147964136Y-114152371D01*
X147931359Y-114120743D01*
X147843022Y-114074534D01*
X147843022Y-114074533D01*
X147775990Y-114054851D01*
X147775978Y-114054848D01*
X147704001Y-114044500D01*
X147704000Y-114044500D01*
X145445194Y-114044500D01*
X145378155Y-114024815D01*
X145357513Y-114008181D01*
X145073020Y-113723688D01*
X145039535Y-113662365D01*
X145036705Y-113635060D01*
X145038731Y-113369706D01*
X145083538Y-107500000D01*
X146594722Y-107500000D01*
X146613762Y-107656818D01*
X146649102Y-107750000D01*
X146669780Y-107804523D01*
X146759517Y-107934530D01*
X146877760Y-108039283D01*
X146877762Y-108039284D01*
X147017634Y-108112696D01*
X147171014Y-108150500D01*
X147171015Y-108150500D01*
X147328985Y-108150500D01*
X147482365Y-108112696D01*
X147622233Y-108039287D01*
X147622234Y-108039285D01*
X147622240Y-108039283D01*
X147630818Y-108031683D01*
X147694050Y-108001963D01*
X147713044Y-108000500D01*
X182651691Y-108000500D01*
X182718730Y-108020185D01*
X182764485Y-108072989D01*
X182774429Y-108142147D01*
X182745404Y-108205703D01*
X182709318Y-108234296D01*
X182703184Y-108237515D01*
X182584939Y-108342270D01*
X182495204Y-108472274D01*
X182495203Y-108472275D01*
X182439185Y-108619980D01*
X182420145Y-108776798D01*
X182420145Y-108776799D01*
X182426319Y-108827652D01*
X182414858Y-108896575D01*
X182390904Y-108930278D01*
X181923589Y-109397593D01*
X181904467Y-109411248D01*
X181905150Y-109412204D01*
X181890381Y-109422748D01*
X181884175Y-109427579D01*
X181846992Y-109467970D01*
X180728781Y-110586181D01*
X180667458Y-110619666D01*
X180641100Y-110622500D01*
X176264764Y-110622500D01*
X176197725Y-110602815D01*
X176184906Y-110592485D01*
X176184898Y-110592497D01*
X176178452Y-110587551D01*
X176178451Y-110587549D01*
X176058233Y-110495302D01*
X176058229Y-110495300D01*
X175918236Y-110437313D01*
X175918234Y-110437312D01*
X175768001Y-110417534D01*
X175767999Y-110417534D01*
X175617765Y-110437312D01*
X175617763Y-110437313D01*
X175477770Y-110495300D01*
X175477767Y-110495301D01*
X175477767Y-110495302D01*
X175471582Y-110500048D01*
X175357549Y-110587549D01*
X175265300Y-110707770D01*
X175207313Y-110847763D01*
X175207312Y-110847765D01*
X175187534Y-110997999D01*
X175187534Y-110998000D01*
X175207312Y-111148234D01*
X175207313Y-111148236D01*
X175252790Y-111258028D01*
X175265302Y-111288233D01*
X175357549Y-111408451D01*
X175477767Y-111500698D01*
X175617764Y-111558687D01*
X175692882Y-111568576D01*
X175767999Y-111578466D01*
X175768000Y-111578466D01*
X175768001Y-111578466D01*
X175818078Y-111571873D01*
X175918236Y-111558687D01*
X176058233Y-111500698D01*
X176178451Y-111408451D01*
X176178452Y-111408448D01*
X176184898Y-111403503D01*
X176186005Y-111404946D01*
X176238406Y-111376334D01*
X176264764Y-111373500D01*
X180796196Y-111373500D01*
X180821641Y-111376139D01*
X180825440Y-111376935D01*
X180832268Y-111378367D01*
X180853225Y-111375754D01*
X180867492Y-111373977D01*
X180875168Y-111373500D01*
X180879112Y-111373500D01*
X180879114Y-111373500D01*
X180879116Y-111373499D01*
X180879122Y-111373499D01*
X180894487Y-111370934D01*
X180902140Y-111369657D01*
X180956626Y-111362866D01*
X180956627Y-111362865D01*
X180956629Y-111362865D01*
X180964141Y-111360628D01*
X180971606Y-111358066D01*
X180971606Y-111358065D01*
X180971610Y-111358065D01*
X181019877Y-111331944D01*
X181069211Y-111307826D01*
X181069214Y-111307823D01*
X181075594Y-111303268D01*
X181081819Y-111298422D01*
X181081826Y-111298419D01*
X181119008Y-111258028D01*
X182318628Y-110058407D01*
X182337752Y-110044755D01*
X182337069Y-110043798D01*
X182345429Y-110037827D01*
X182345433Y-110037826D01*
X182345435Y-110037823D01*
X182351816Y-110033267D01*
X182358041Y-110028422D01*
X182358048Y-110028419D01*
X182395230Y-109988028D01*
X182919640Y-109463618D01*
X182980963Y-109430133D01*
X183007321Y-109427299D01*
X183154408Y-109427299D01*
X183307788Y-109389495D01*
X183405999Y-109337949D01*
X183447663Y-109316082D01*
X183565906Y-109211329D01*
X183655643Y-109081322D01*
X183655642Y-109081322D01*
X183659904Y-109075149D01*
X183662634Y-109077033D01*
X183700760Y-109037529D01*
X183768758Y-109021465D01*
X183834646Y-109044714D01*
X183849793Y-109057606D01*
X183963181Y-109170994D01*
X183996666Y-109232317D01*
X183999500Y-109258675D01*
X183999500Y-110034946D01*
X183979815Y-110101985D01*
X183977550Y-110105386D01*
X183915333Y-110195523D01*
X183915332Y-110195524D01*
X183859314Y-110343229D01*
X183840274Y-110500047D01*
X183840274Y-110500048D01*
X183859314Y-110656866D01*
X183878619Y-110707767D01*
X183915332Y-110804571D01*
X184005069Y-110934578D01*
X184123312Y-111039331D01*
X184123314Y-111039332D01*
X184263186Y-111112744D01*
X184416566Y-111150548D01*
X184416567Y-111150548D01*
X184574537Y-111150548D01*
X184727917Y-111112744D01*
X184867792Y-111039331D01*
X184986035Y-110934578D01*
X185075772Y-110804571D01*
X185131789Y-110656866D01*
X185150830Y-110500048D01*
X185150272Y-110495448D01*
X185131789Y-110343229D01*
X185100286Y-110260164D01*
X185075772Y-110195525D01*
X185022450Y-110118274D01*
X185000567Y-110051919D01*
X185000500Y-110047834D01*
X185000500Y-109067143D01*
X185003334Y-109040785D01*
X185004359Y-109036073D01*
X185000658Y-108984329D01*
X185000500Y-108979904D01*
X185000500Y-108964201D01*
X184998264Y-108948657D01*
X184997791Y-108944254D01*
X184997030Y-108933617D01*
X184994091Y-108892517D01*
X184992407Y-108888002D01*
X184985850Y-108862312D01*
X184985165Y-108857543D01*
X184963612Y-108810351D01*
X184961932Y-108806295D01*
X184943796Y-108757669D01*
X184940905Y-108753807D01*
X184927379Y-108731010D01*
X184925377Y-108726627D01*
X184925375Y-108726625D01*
X184925375Y-108726624D01*
X184925374Y-108726623D01*
X184891403Y-108687418D01*
X184888625Y-108683970D01*
X184879224Y-108671412D01*
X184879222Y-108671410D01*
X184879220Y-108671407D01*
X184868117Y-108660304D01*
X184865100Y-108657063D01*
X184831128Y-108617857D01*
X184827071Y-108615250D01*
X184806427Y-108598614D01*
X183401385Y-107193571D01*
X183384750Y-107172928D01*
X183382145Y-107168874D01*
X183382142Y-107168871D01*
X183345710Y-107137303D01*
X183342932Y-107134896D01*
X183339700Y-107131886D01*
X183328596Y-107120782D01*
X183328588Y-107120775D01*
X183316013Y-107111362D01*
X183312583Y-107108598D01*
X183273373Y-107074623D01*
X183273371Y-107074622D01*
X183273367Y-107074619D01*
X183268983Y-107072617D01*
X183246194Y-107059096D01*
X183242331Y-107056204D01*
X183242329Y-107056203D01*
X183193716Y-107038071D01*
X183189642Y-107036383D01*
X183142457Y-107014835D01*
X183142455Y-107014834D01*
X183137682Y-107014148D01*
X183112000Y-107007593D01*
X183107485Y-107005909D01*
X183055740Y-107002207D01*
X183051343Y-107001734D01*
X183035799Y-106999500D01*
X183020094Y-106999500D01*
X183015671Y-106999342D01*
X182998083Y-106998084D01*
X182963929Y-106995641D01*
X182963925Y-106995641D01*
X182959215Y-106996666D01*
X182932857Y-106999500D01*
X147713044Y-106999500D01*
X147646005Y-106979815D01*
X147630820Y-106968318D01*
X147622240Y-106960717D01*
X147622238Y-106960716D01*
X147622237Y-106960715D01*
X147622233Y-106960712D01*
X147482365Y-106887303D01*
X147328986Y-106849500D01*
X147328985Y-106849500D01*
X147171015Y-106849500D01*
X147171014Y-106849500D01*
X147017634Y-106887303D01*
X146877762Y-106960715D01*
X146759516Y-107065471D01*
X146669781Y-107195475D01*
X146669780Y-107195476D01*
X146613762Y-107343181D01*
X146594722Y-107499999D01*
X146594722Y-107500000D01*
X145083538Y-107500000D01*
X145154148Y-98250000D01*
X145844722Y-98250000D01*
X145863762Y-98406818D01*
X145919149Y-98552858D01*
X145919780Y-98554523D01*
X146009517Y-98684530D01*
X146127760Y-98789283D01*
X146127762Y-98789284D01*
X146267634Y-98862696D01*
X146421014Y-98900500D01*
X146568101Y-98900500D01*
X146635140Y-98920185D01*
X146655782Y-98936819D01*
X146947849Y-99228886D01*
X146963977Y-99248745D01*
X146969916Y-99257836D01*
X146997932Y-99279641D01*
X147003693Y-99284730D01*
X147006482Y-99287519D01*
X147025483Y-99301085D01*
X147068811Y-99334809D01*
X147075704Y-99338539D01*
X147082796Y-99342006D01*
X147082801Y-99342010D01*
X147135403Y-99357670D01*
X147187338Y-99375500D01*
X147195072Y-99376790D01*
X147202910Y-99377767D01*
X147202912Y-99377768D01*
X147202913Y-99377767D01*
X147202914Y-99377768D01*
X147257756Y-99375500D01*
X164793101Y-99375500D01*
X164860140Y-99395185D01*
X164880782Y-99411819D01*
X169565481Y-104096518D01*
X169598966Y-104157841D01*
X169600896Y-104199143D01*
X169594722Y-104249997D01*
X169594722Y-104250000D01*
X169613762Y-104406818D01*
X169632873Y-104457208D01*
X169669780Y-104554523D01*
X169759517Y-104684530D01*
X169877760Y-104789283D01*
X169877762Y-104789284D01*
X170017634Y-104862696D01*
X170171014Y-104900500D01*
X170171015Y-104900500D01*
X170328985Y-104900500D01*
X170482365Y-104862696D01*
X170483706Y-104861992D01*
X170622240Y-104789283D01*
X170740483Y-104684530D01*
X170830220Y-104554523D01*
X170886237Y-104406818D01*
X170905278Y-104250000D01*
X170886237Y-104093182D01*
X170830220Y-103945477D01*
X170740483Y-103815470D01*
X170622240Y-103710717D01*
X170622238Y-103710716D01*
X170622237Y-103710715D01*
X170482365Y-103637303D01*
X170328986Y-103599500D01*
X170328985Y-103599500D01*
X170181900Y-103599500D01*
X170114861Y-103579815D01*
X170094219Y-103563181D01*
X165302149Y-98771111D01*
X165286022Y-98751252D01*
X165280086Y-98742167D01*
X165280083Y-98742163D01*
X165252074Y-98720363D01*
X165246310Y-98715272D01*
X165243515Y-98712477D01*
X165224505Y-98698906D01*
X165181189Y-98665190D01*
X165174274Y-98661448D01*
X165167200Y-98657990D01*
X165114596Y-98642329D01*
X165062658Y-98624499D01*
X165054923Y-98623208D01*
X165047085Y-98622231D01*
X164992244Y-98624500D01*
X147456899Y-98624500D01*
X147389860Y-98604815D01*
X147369218Y-98588181D01*
X147184517Y-98403480D01*
X147151032Y-98342157D01*
X147149102Y-98300857D01*
X147155278Y-98250000D01*
X147136237Y-98093182D01*
X147080220Y-97945477D01*
X146990483Y-97815470D01*
X146872240Y-97710717D01*
X146872238Y-97710716D01*
X146872237Y-97710715D01*
X146732365Y-97637303D01*
X146578986Y-97599500D01*
X146578985Y-97599500D01*
X146421015Y-97599500D01*
X146421014Y-97599500D01*
X146267634Y-97637303D01*
X146127762Y-97710715D01*
X146009516Y-97815471D01*
X145919781Y-97945475D01*
X145919780Y-97945476D01*
X145863762Y-98093181D01*
X145844722Y-98249999D01*
X145844722Y-98250000D01*
X145154148Y-98250000D01*
X145286631Y-80894680D01*
X145306826Y-80827795D01*
X145359978Y-80782445D01*
X145410006Y-80771631D01*
X195965888Y-80520110D01*
X196019548Y-80514138D01*
X196047507Y-80507982D01*
X196070435Y-80502936D01*
X196072715Y-80502307D01*
X196096198Y-80495834D01*
X196182828Y-80446503D01*
X196235632Y-80400748D01*
X196267257Y-80367974D01*
X196313465Y-80279639D01*
X196333150Y-80212600D01*
X196343500Y-80140615D01*
X196343500Y-71752503D01*
X196337551Y-71697688D01*
X196327138Y-71650280D01*
X196326140Y-71645735D01*
X196325424Y-71643155D01*
X196318681Y-71618868D01*
X196269000Y-71532438D01*
X196223032Y-71479820D01*
X196190128Y-71448326D01*
X196101606Y-71402477D01*
X196034487Y-71383064D01*
X196034482Y-71383063D01*
X196034481Y-71383063D01*
X196034476Y-71383062D01*
X195962469Y-71373006D01*
X195962464Y-71373005D01*
X133472470Y-71626001D01*
X133418671Y-71631950D01*
X133371395Y-71642336D01*
X133367670Y-71643155D01*
X133367667Y-71643155D01*
X133367666Y-71643156D01*
X133341802Y-71650279D01*
X133255177Y-71699607D01*
X133255172Y-71699610D01*
X133202371Y-71745363D01*
X133170743Y-71778139D01*
X133124534Y-71866476D01*
X133124533Y-71866476D01*
X133104851Y-71933508D01*
X133104848Y-71933520D01*
X133094500Y-72005497D01*
X133094500Y-97726161D01*
X133094978Y-97739561D01*
X133094979Y-97739570D01*
X133110925Y-97819730D01*
X133135341Y-97885193D01*
X133154998Y-97926281D01*
X133172239Y-97945475D01*
X133213536Y-97991451D01*
X133243690Y-98054478D01*
X133234983Y-98123803D01*
X133208968Y-98161993D01*
X130521108Y-100849852D01*
X130501254Y-100865976D01*
X130492165Y-100871914D01*
X130492164Y-100871915D01*
X130470363Y-100899923D01*
X130465286Y-100905674D01*
X130462484Y-100908477D01*
X130462474Y-100908488D01*
X130448905Y-100927495D01*
X130415192Y-100970808D01*
X130411447Y-100977729D01*
X130407988Y-100984804D01*
X130392329Y-101037403D01*
X130374500Y-101089338D01*
X130373206Y-101097092D01*
X130372231Y-101104911D01*
X130374500Y-101159755D01*
X130374500Y-103407796D01*
X130354815Y-103474835D01*
X130332727Y-103500611D01*
X130259518Y-103565468D01*
X130169781Y-103695475D01*
X130169780Y-103695476D01*
X130113762Y-103843181D01*
X130094722Y-103999999D01*
X130094722Y-104000000D01*
X130113762Y-104156818D01*
X130149102Y-104250000D01*
X130169780Y-104304523D01*
X130259517Y-104434530D01*
X130377760Y-104539283D01*
X130377762Y-104539284D01*
X130517634Y-104612696D01*
X130671014Y-104650500D01*
X130671015Y-104650500D01*
X130828985Y-104650500D01*
X130982365Y-104612696D01*
X131122240Y-104539283D01*
X131240483Y-104434530D01*
X131273451Y-104386767D01*
X131327732Y-104342778D01*
X131397180Y-104335118D01*
X131459746Y-104366221D01*
X131495563Y-104426211D01*
X131499500Y-104457208D01*
X131499500Y-104491323D01*
X131479815Y-104558362D01*
X131463181Y-104579004D01*
X127441234Y-108600951D01*
X127379911Y-108634436D01*
X127310219Y-108629452D01*
X127265872Y-108600951D01*
X126869657Y-108204736D01*
X126836172Y-108143413D01*
X126833338Y-108117055D01*
X126833338Y-95825763D01*
X127370787Y-95825763D01*
X127400413Y-96095013D01*
X127400415Y-96095024D01*
X127460028Y-96323046D01*
X127468928Y-96357088D01*
X127574870Y-96606390D01*
X127646998Y-96724575D01*
X127715979Y-96837605D01*
X127715986Y-96837615D01*
X127889253Y-97045819D01*
X127889259Y-97045824D01*
X127994240Y-97139887D01*
X128090998Y-97226582D01*
X128316910Y-97376044D01*
X128562176Y-97491020D01*
X128562183Y-97491022D01*
X128562185Y-97491023D01*
X128821557Y-97569057D01*
X128821564Y-97569058D01*
X128821569Y-97569060D01*
X129089561Y-97608500D01*
X129089566Y-97608500D01*
X129292636Y-97608500D01*
X129344133Y-97604730D01*
X129495156Y-97593677D01*
X129607758Y-97568593D01*
X129759546Y-97534782D01*
X129759548Y-97534781D01*
X129759553Y-97534780D01*
X130012558Y-97438014D01*
X130248777Y-97305441D01*
X130463177Y-97139888D01*
X130651186Y-96944881D01*
X130808799Y-96724579D01*
X130882787Y-96580669D01*
X130932649Y-96483690D01*
X130932651Y-96483684D01*
X130932656Y-96483675D01*
X131020118Y-96227305D01*
X131069319Y-95960933D01*
X131079212Y-95690235D01*
X131049586Y-95420982D01*
X130981072Y-95158912D01*
X130875130Y-94909610D01*
X130734018Y-94678390D01*
X130730107Y-94673690D01*
X130560746Y-94470180D01*
X130560740Y-94470175D01*
X130359002Y-94289418D01*
X130133092Y-94139957D01*
X130133090Y-94139956D01*
X129887824Y-94024980D01*
X129887819Y-94024978D01*
X129887814Y-94024976D01*
X129628442Y-93946942D01*
X129628428Y-93946939D01*
X129512791Y-93929921D01*
X129360439Y-93907500D01*
X129157369Y-93907500D01*
X129157364Y-93907500D01*
X128954844Y-93922323D01*
X128954831Y-93922325D01*
X128690453Y-93981217D01*
X128690446Y-93981220D01*
X128437439Y-94077987D01*
X128201226Y-94210557D01*
X128201224Y-94210558D01*
X128201223Y-94210559D01*
X128167864Y-94236318D01*
X127986822Y-94376112D01*
X127798822Y-94571109D01*
X127798816Y-94571116D01*
X127641202Y-94791419D01*
X127641199Y-94791424D01*
X127517350Y-95032309D01*
X127517343Y-95032327D01*
X127429884Y-95288685D01*
X127429882Y-95288695D01*
X127395919Y-95472572D01*
X127380681Y-95555068D01*
X127380680Y-95555075D01*
X127370787Y-95825763D01*
X126833338Y-95825763D01*
X126833338Y-74267763D01*
X128270787Y-74267763D01*
X128300413Y-74537013D01*
X128300415Y-74537024D01*
X128368926Y-74799082D01*
X128368928Y-74799088D01*
X128474870Y-75048390D01*
X128546998Y-75166575D01*
X128615979Y-75279605D01*
X128615986Y-75279615D01*
X128789253Y-75487819D01*
X128789259Y-75487824D01*
X128990998Y-75668582D01*
X129216910Y-75818044D01*
X129462176Y-75933020D01*
X129462183Y-75933022D01*
X129462185Y-75933023D01*
X129721557Y-76011057D01*
X129721564Y-76011058D01*
X129721569Y-76011060D01*
X129989561Y-76050500D01*
X129989566Y-76050500D01*
X130192636Y-76050500D01*
X130244133Y-76046730D01*
X130395156Y-76035677D01*
X130507758Y-76010593D01*
X130659546Y-75976782D01*
X130659548Y-75976781D01*
X130659553Y-75976780D01*
X130912558Y-75880014D01*
X131148777Y-75747441D01*
X131363177Y-75581888D01*
X131551186Y-75386881D01*
X131708799Y-75166579D01*
X131782787Y-75022669D01*
X131832649Y-74925690D01*
X131832651Y-74925684D01*
X131832656Y-74925675D01*
X131920118Y-74669305D01*
X131969319Y-74402933D01*
X131979212Y-74132235D01*
X131949586Y-73862982D01*
X131881072Y-73600912D01*
X131775130Y-73351610D01*
X131634018Y-73120390D01*
X131544747Y-73013119D01*
X131460746Y-72912180D01*
X131460740Y-72912175D01*
X131259002Y-72731418D01*
X131033092Y-72581957D01*
X131033090Y-72581956D01*
X130787824Y-72466980D01*
X130787819Y-72466978D01*
X130787814Y-72466976D01*
X130528442Y-72388942D01*
X130528428Y-72388939D01*
X130412791Y-72371921D01*
X130260439Y-72349500D01*
X130057369Y-72349500D01*
X130057364Y-72349500D01*
X129854844Y-72364323D01*
X129854831Y-72364325D01*
X129590453Y-72423217D01*
X129590446Y-72423220D01*
X129337439Y-72519987D01*
X129101226Y-72652557D01*
X128886822Y-72818112D01*
X128698822Y-73013109D01*
X128698816Y-73013116D01*
X128541202Y-73233419D01*
X128541199Y-73233424D01*
X128417350Y-73474309D01*
X128417343Y-73474327D01*
X128329884Y-73730685D01*
X128329881Y-73730699D01*
X128280681Y-73997068D01*
X128280680Y-73997075D01*
X128270787Y-74267763D01*
X126833338Y-74267763D01*
X126833338Y-60212289D01*
X126853023Y-60145250D01*
X126905827Y-60099495D01*
X127052753Y-60032396D01*
X127223952Y-59910486D01*
X127269338Y-59862887D01*
X127368985Y-59758379D01*
X127368986Y-59758378D01*
X127391822Y-59722844D01*
X127900000Y-59722844D01*
X127906401Y-59782372D01*
X127906403Y-59782379D01*
X127956645Y-59917086D01*
X127956649Y-59917093D01*
X128042809Y-60032187D01*
X128042812Y-60032190D01*
X128157906Y-60118350D01*
X128157913Y-60118354D01*
X128292620Y-60168596D01*
X128292627Y-60168598D01*
X128352155Y-60174999D01*
X128352172Y-60175000D01*
X128750000Y-60175000D01*
X128750000Y-59360501D01*
X128857685Y-59409680D01*
X128964237Y-59425000D01*
X129035763Y-59425000D01*
X129142315Y-59409680D01*
X129250000Y-59360501D01*
X129250000Y-60175000D01*
X129647828Y-60175000D01*
X129647844Y-60174999D01*
X129707372Y-60168598D01*
X129707379Y-60168596D01*
X129842086Y-60118354D01*
X129842093Y-60118350D01*
X129957187Y-60032190D01*
X129957190Y-60032187D01*
X130043350Y-59917093D01*
X130043354Y-59917086D01*
X130093596Y-59782379D01*
X130093598Y-59782372D01*
X130099999Y-59722844D01*
X130100000Y-59722827D01*
X130100000Y-59177425D01*
X145399500Y-59177425D01*
X145414472Y-59334218D01*
X145473684Y-59535875D01*
X145557101Y-59697682D01*
X145569991Y-59722686D01*
X145699905Y-59887883D01*
X145699909Y-59887887D01*
X145858746Y-60025521D01*
X146040750Y-60130601D01*
X146040752Y-60130601D01*
X146040756Y-60130604D01*
X146239367Y-60199344D01*
X146447398Y-60229254D01*
X146657330Y-60219254D01*
X146861576Y-60169704D01*
X146964717Y-60122601D01*
X147052743Y-60082401D01*
X147052746Y-60082399D01*
X147052753Y-60082396D01*
X147223952Y-59960486D01*
X147225281Y-59959093D01*
X147368985Y-59808379D01*
X147369561Y-59807483D01*
X147391822Y-59772844D01*
X147900000Y-59772844D01*
X147906401Y-59832372D01*
X147906403Y-59832379D01*
X147956645Y-59967086D01*
X147956649Y-59967093D01*
X148042809Y-60082187D01*
X148042812Y-60082190D01*
X148157906Y-60168350D01*
X148157913Y-60168354D01*
X148292620Y-60218596D01*
X148292627Y-60218598D01*
X148352155Y-60224999D01*
X148352172Y-60225000D01*
X148750000Y-60225000D01*
X148750000Y-59410501D01*
X148857685Y-59459680D01*
X148964237Y-59475000D01*
X149035763Y-59475000D01*
X149142315Y-59459680D01*
X149250000Y-59410501D01*
X149250000Y-60225000D01*
X149647828Y-60225000D01*
X149647844Y-60224999D01*
X149707372Y-60218598D01*
X149707379Y-60218596D01*
X149842086Y-60168354D01*
X149842093Y-60168350D01*
X149957187Y-60082190D01*
X149957190Y-60082187D01*
X150043350Y-59967093D01*
X150043354Y-59967086D01*
X150093596Y-59832379D01*
X150093598Y-59832372D01*
X150099999Y-59772844D01*
X150100000Y-59772827D01*
X150100000Y-59225000D01*
X149433686Y-59225000D01*
X149459493Y-59184844D01*
X149469012Y-59152425D01*
X154899500Y-59152425D01*
X154914472Y-59309218D01*
X154938765Y-59391952D01*
X154973598Y-59510584D01*
X154973684Y-59510875D01*
X155048304Y-59655618D01*
X155069991Y-59697686D01*
X155199905Y-59862883D01*
X155199909Y-59862887D01*
X155358746Y-60000521D01*
X155540750Y-60105601D01*
X155540752Y-60105601D01*
X155540756Y-60105604D01*
X155739367Y-60174344D01*
X155947398Y-60204254D01*
X156157330Y-60194254D01*
X156361576Y-60144704D01*
X156447199Y-60105601D01*
X156552743Y-60057401D01*
X156552746Y-60057399D01*
X156552753Y-60057396D01*
X156723952Y-59935486D01*
X156730054Y-59929087D01*
X156868985Y-59783379D01*
X156869561Y-59782483D01*
X156891806Y-59747870D01*
X157399500Y-59747870D01*
X157399501Y-59747876D01*
X157405908Y-59807483D01*
X157456202Y-59942328D01*
X157456206Y-59942335D01*
X157542452Y-60057544D01*
X157542455Y-60057547D01*
X157657664Y-60143793D01*
X157657671Y-60143797D01*
X157792517Y-60194091D01*
X157792516Y-60194091D01*
X157799444Y-60194835D01*
X157852127Y-60200500D01*
X159147872Y-60200499D01*
X159207483Y-60194091D01*
X159342331Y-60143796D01*
X159457546Y-60057546D01*
X159543796Y-59942331D01*
X159594091Y-59807483D01*
X159600500Y-59747873D01*
X159600500Y-59169425D01*
X167849500Y-59169425D01*
X167864472Y-59326218D01*
X167923684Y-59527875D01*
X167989540Y-59655618D01*
X168019991Y-59714686D01*
X168149905Y-59879883D01*
X168149909Y-59879887D01*
X168308746Y-60017521D01*
X168490750Y-60122601D01*
X168490752Y-60122601D01*
X168490756Y-60122604D01*
X168689367Y-60191344D01*
X168897398Y-60221254D01*
X169107330Y-60211254D01*
X169311576Y-60161704D01*
X169406508Y-60118350D01*
X169502743Y-60074401D01*
X169502746Y-60074399D01*
X169502753Y-60074396D01*
X169673952Y-59952486D01*
X169690162Y-59935486D01*
X169818985Y-59800379D01*
X169818986Y-59800378D01*
X169841822Y-59764844D01*
X170350000Y-59764844D01*
X170356401Y-59824372D01*
X170356403Y-59824379D01*
X170406645Y-59959086D01*
X170406649Y-59959093D01*
X170492809Y-60074187D01*
X170492812Y-60074190D01*
X170607906Y-60160350D01*
X170607913Y-60160354D01*
X170742620Y-60210596D01*
X170742627Y-60210598D01*
X170802155Y-60216999D01*
X170802172Y-60217000D01*
X171200000Y-60217000D01*
X171200000Y-59402501D01*
X171307685Y-59451680D01*
X171414237Y-59467000D01*
X171485763Y-59467000D01*
X171592315Y-59451680D01*
X171700000Y-59402501D01*
X171700000Y-60217000D01*
X172097828Y-60217000D01*
X172097844Y-60216999D01*
X172157372Y-60210598D01*
X172157379Y-60210596D01*
X172292086Y-60160354D01*
X172292093Y-60160350D01*
X172407187Y-60074190D01*
X172407190Y-60074187D01*
X172493350Y-59959093D01*
X172493354Y-59959086D01*
X172543596Y-59824379D01*
X172543598Y-59824372D01*
X172549999Y-59764844D01*
X172550000Y-59764827D01*
X172550000Y-59217000D01*
X171883686Y-59217000D01*
X171909493Y-59176844D01*
X171924004Y-59127425D01*
X176649500Y-59127425D01*
X176664472Y-59284218D01*
X176685478Y-59355757D01*
X176715141Y-59456782D01*
X176723684Y-59485875D01*
X176798797Y-59631574D01*
X176819991Y-59672686D01*
X176949905Y-59837883D01*
X176949909Y-59837887D01*
X177108746Y-59975521D01*
X177290750Y-60080601D01*
X177290752Y-60080601D01*
X177290756Y-60080604D01*
X177489367Y-60149344D01*
X177697398Y-60179254D01*
X177907330Y-60169254D01*
X178111576Y-60119704D01*
X178197199Y-60080601D01*
X178302743Y-60032401D01*
X178302746Y-60032399D01*
X178302753Y-60032396D01*
X178473952Y-59910486D01*
X178519338Y-59862887D01*
X178618985Y-59758379D01*
X178618986Y-59758378D01*
X178641822Y-59722844D01*
X179150000Y-59722844D01*
X179156401Y-59782372D01*
X179156403Y-59782379D01*
X179206645Y-59917086D01*
X179206649Y-59917093D01*
X179292809Y-60032187D01*
X179292812Y-60032190D01*
X179407906Y-60118350D01*
X179407913Y-60118354D01*
X179542620Y-60168596D01*
X179542627Y-60168598D01*
X179602155Y-60174999D01*
X179602172Y-60175000D01*
X180000000Y-60175000D01*
X180000000Y-59360501D01*
X180107685Y-59409680D01*
X180214237Y-59425000D01*
X180285763Y-59425000D01*
X180392315Y-59409680D01*
X180500000Y-59360501D01*
X180500000Y-60175000D01*
X180897828Y-60175000D01*
X180897844Y-60174999D01*
X180957372Y-60168598D01*
X180957379Y-60168596D01*
X181092086Y-60118354D01*
X181092093Y-60118350D01*
X181207187Y-60032190D01*
X181207190Y-60032187D01*
X181293350Y-59917093D01*
X181293354Y-59917086D01*
X181343596Y-59782379D01*
X181343598Y-59782372D01*
X181349999Y-59722844D01*
X181350000Y-59722827D01*
X181350000Y-59175000D01*
X180683686Y-59175000D01*
X180709493Y-59134844D01*
X180711671Y-59127425D01*
X185449500Y-59127425D01*
X185464472Y-59284218D01*
X185485478Y-59355757D01*
X185515141Y-59456782D01*
X185523684Y-59485875D01*
X185598797Y-59631574D01*
X185619991Y-59672686D01*
X185749905Y-59837883D01*
X185749909Y-59837887D01*
X185908746Y-59975521D01*
X186090750Y-60080601D01*
X186090752Y-60080601D01*
X186090756Y-60080604D01*
X186289367Y-60149344D01*
X186497398Y-60179254D01*
X186707330Y-60169254D01*
X186911576Y-60119704D01*
X186997199Y-60080601D01*
X187102743Y-60032401D01*
X187102746Y-60032399D01*
X187102753Y-60032396D01*
X187273952Y-59910486D01*
X187319338Y-59862887D01*
X187418985Y-59758379D01*
X187418986Y-59758378D01*
X187441806Y-59722870D01*
X187949500Y-59722870D01*
X187949501Y-59722876D01*
X187955908Y-59782483D01*
X188006202Y-59917328D01*
X188006206Y-59917335D01*
X188092452Y-60032544D01*
X188092455Y-60032547D01*
X188207664Y-60118793D01*
X188207671Y-60118797D01*
X188342517Y-60169091D01*
X188342516Y-60169091D01*
X188349444Y-60169835D01*
X188402127Y-60175500D01*
X189697872Y-60175499D01*
X189757483Y-60169091D01*
X189892331Y-60118796D01*
X190007546Y-60032546D01*
X190093796Y-59917331D01*
X190144091Y-59782483D01*
X190150500Y-59722873D01*
X190150499Y-58127128D01*
X190145299Y-58078757D01*
X190144091Y-58067516D01*
X190093797Y-57932671D01*
X190093793Y-57932664D01*
X190007547Y-57817455D01*
X190007544Y-57817452D01*
X189892335Y-57731206D01*
X189892328Y-57731202D01*
X189757482Y-57680908D01*
X189757483Y-57680908D01*
X189697883Y-57674501D01*
X189697881Y-57674500D01*
X189697873Y-57674500D01*
X189697864Y-57674500D01*
X188402129Y-57674500D01*
X188402123Y-57674501D01*
X188342516Y-57680908D01*
X188207671Y-57731202D01*
X188207664Y-57731206D01*
X188092455Y-57817452D01*
X188092452Y-57817455D01*
X188006206Y-57932664D01*
X188006202Y-57932671D01*
X187955908Y-58067517D01*
X187950629Y-58116622D01*
X187949501Y-58127123D01*
X187949500Y-58127135D01*
X187949500Y-59722870D01*
X187441806Y-59722870D01*
X187532613Y-59581572D01*
X187610725Y-59386457D01*
X187650500Y-59180085D01*
X187650500Y-58722575D01*
X187635528Y-58565782D01*
X187576316Y-58364125D01*
X187480011Y-58177318D01*
X187480009Y-58177316D01*
X187480008Y-58177313D01*
X187350094Y-58012116D01*
X187350090Y-58012112D01*
X187191253Y-57874478D01*
X187009249Y-57769398D01*
X187009245Y-57769396D01*
X187009244Y-57769396D01*
X186810633Y-57700656D01*
X186602602Y-57670746D01*
X186602598Y-57670746D01*
X186392672Y-57680745D01*
X186188421Y-57730296D01*
X186188417Y-57730298D01*
X185997256Y-57817598D01*
X185997251Y-57817601D01*
X185826046Y-57939515D01*
X185826040Y-57939520D01*
X185681014Y-58091620D01*
X185567388Y-58268425D01*
X185489274Y-58463544D01*
X185454456Y-58644202D01*
X185449500Y-58669915D01*
X185449500Y-59127425D01*
X180711671Y-59127425D01*
X180750000Y-58996889D01*
X180750000Y-58853111D01*
X180709493Y-58715156D01*
X180683686Y-58675000D01*
X181350000Y-58675000D01*
X181350000Y-58127172D01*
X181349999Y-58127155D01*
X181343598Y-58067627D01*
X181343596Y-58067620D01*
X181293354Y-57932913D01*
X181293350Y-57932906D01*
X181207190Y-57817812D01*
X181207187Y-57817809D01*
X181092093Y-57731649D01*
X181092086Y-57731645D01*
X180957379Y-57681403D01*
X180957372Y-57681401D01*
X180897844Y-57675000D01*
X180500000Y-57675000D01*
X180500000Y-58489498D01*
X180392315Y-58440320D01*
X180285763Y-58425000D01*
X180214237Y-58425000D01*
X180107685Y-58440320D01*
X180000000Y-58489498D01*
X180000000Y-57675000D01*
X179602155Y-57675000D01*
X179542627Y-57681401D01*
X179542620Y-57681403D01*
X179407913Y-57731645D01*
X179407906Y-57731649D01*
X179292812Y-57817809D01*
X179292809Y-57817812D01*
X179206649Y-57932906D01*
X179206645Y-57932913D01*
X179156403Y-58067620D01*
X179156401Y-58067627D01*
X179150000Y-58127155D01*
X179150000Y-58675000D01*
X179816314Y-58675000D01*
X179790507Y-58715156D01*
X179750000Y-58853111D01*
X179750000Y-58996889D01*
X179790507Y-59134844D01*
X179816314Y-59175000D01*
X179150000Y-59175000D01*
X179150000Y-59722844D01*
X178641822Y-59722844D01*
X178732613Y-59581572D01*
X178810725Y-59386457D01*
X178850500Y-59180085D01*
X178850500Y-58722575D01*
X178835528Y-58565782D01*
X178776316Y-58364125D01*
X178680011Y-58177318D01*
X178680009Y-58177316D01*
X178680008Y-58177313D01*
X178550094Y-58012116D01*
X178550090Y-58012112D01*
X178391253Y-57874478D01*
X178209249Y-57769398D01*
X178209245Y-57769396D01*
X178209244Y-57769396D01*
X178010633Y-57700656D01*
X177802602Y-57670746D01*
X177802598Y-57670746D01*
X177592672Y-57680745D01*
X177388421Y-57730296D01*
X177388417Y-57730298D01*
X177197256Y-57817598D01*
X177197251Y-57817601D01*
X177026046Y-57939515D01*
X177026040Y-57939520D01*
X176881014Y-58091620D01*
X176767388Y-58268425D01*
X176689274Y-58463544D01*
X176654456Y-58644202D01*
X176649500Y-58669915D01*
X176649500Y-59127425D01*
X171924004Y-59127425D01*
X171950000Y-59038889D01*
X171950000Y-58895111D01*
X171909493Y-58757156D01*
X171883686Y-58717000D01*
X172550000Y-58717000D01*
X172550000Y-58169172D01*
X172549999Y-58169155D01*
X172543598Y-58109627D01*
X172543596Y-58109620D01*
X172493354Y-57974913D01*
X172493350Y-57974906D01*
X172407190Y-57859812D01*
X172407187Y-57859809D01*
X172292093Y-57773649D01*
X172292086Y-57773645D01*
X172157379Y-57723403D01*
X172157372Y-57723401D01*
X172097844Y-57717000D01*
X171700000Y-57717000D01*
X171700000Y-58531498D01*
X171592315Y-58482320D01*
X171485763Y-58467000D01*
X171414237Y-58467000D01*
X171307685Y-58482320D01*
X171200000Y-58531498D01*
X171200000Y-57717000D01*
X170802155Y-57717000D01*
X170742627Y-57723401D01*
X170742620Y-57723403D01*
X170607913Y-57773645D01*
X170607906Y-57773649D01*
X170492812Y-57859809D01*
X170492809Y-57859812D01*
X170406649Y-57974906D01*
X170406645Y-57974913D01*
X170356403Y-58109620D01*
X170356401Y-58109627D01*
X170350000Y-58169155D01*
X170350000Y-58717000D01*
X171016314Y-58717000D01*
X170990507Y-58757156D01*
X170950000Y-58895111D01*
X170950000Y-59038889D01*
X170990507Y-59176844D01*
X171016314Y-59217000D01*
X170350000Y-59217000D01*
X170350000Y-59764844D01*
X169841822Y-59764844D01*
X169932613Y-59623572D01*
X170010725Y-59428457D01*
X170050500Y-59222085D01*
X170050500Y-58764575D01*
X170035528Y-58607782D01*
X169976316Y-58406125D01*
X169880011Y-58219318D01*
X169880009Y-58219316D01*
X169880008Y-58219313D01*
X169750094Y-58054116D01*
X169750090Y-58054112D01*
X169591253Y-57916478D01*
X169409249Y-57811398D01*
X169409245Y-57811396D01*
X169409244Y-57811396D01*
X169210633Y-57742656D01*
X169002602Y-57712746D01*
X169002598Y-57712746D01*
X168792672Y-57722745D01*
X168588421Y-57772296D01*
X168588417Y-57772298D01*
X168397256Y-57859598D01*
X168397251Y-57859601D01*
X168226046Y-57981515D01*
X168226040Y-57981520D01*
X168081014Y-58133620D01*
X167967388Y-58310425D01*
X167889274Y-58505544D01*
X167852776Y-58694915D01*
X167849500Y-58711915D01*
X167849500Y-59169425D01*
X159600500Y-59169425D01*
X159600499Y-58152128D01*
X159594091Y-58092517D01*
X159593757Y-58091622D01*
X159543797Y-57957671D01*
X159543793Y-57957664D01*
X159457547Y-57842455D01*
X159457544Y-57842452D01*
X159342335Y-57756206D01*
X159342328Y-57756202D01*
X159207482Y-57705908D01*
X159207483Y-57705908D01*
X159147883Y-57699501D01*
X159147881Y-57699500D01*
X159147873Y-57699500D01*
X159147864Y-57699500D01*
X157852129Y-57699500D01*
X157852123Y-57699501D01*
X157792516Y-57705908D01*
X157657671Y-57756202D01*
X157657664Y-57756206D01*
X157542455Y-57842452D01*
X157542452Y-57842455D01*
X157456206Y-57957664D01*
X157456202Y-57957671D01*
X157405908Y-58092517D01*
X157400629Y-58141622D01*
X157399501Y-58152123D01*
X157399500Y-58152135D01*
X157399500Y-59747870D01*
X156891806Y-59747870D01*
X156982613Y-59606572D01*
X157060725Y-59411457D01*
X157100500Y-59205085D01*
X157100500Y-58747575D01*
X157085528Y-58590782D01*
X157026316Y-58389125D01*
X156930011Y-58202318D01*
X156930009Y-58202316D01*
X156930008Y-58202313D01*
X156800094Y-58037116D01*
X156800090Y-58037112D01*
X156641253Y-57899478D01*
X156459249Y-57794398D01*
X156459245Y-57794396D01*
X156459244Y-57794396D01*
X156260633Y-57725656D01*
X156052602Y-57695746D01*
X156052598Y-57695746D01*
X155842672Y-57705745D01*
X155638421Y-57755296D01*
X155638417Y-57755298D01*
X155447256Y-57842598D01*
X155447251Y-57842601D01*
X155276046Y-57964515D01*
X155276040Y-57964520D01*
X155131014Y-58116620D01*
X155017388Y-58293425D01*
X154939274Y-58488544D01*
X154904318Y-58669915D01*
X154899500Y-58694915D01*
X154899500Y-59152425D01*
X149469012Y-59152425D01*
X149500000Y-59046889D01*
X149500000Y-58903111D01*
X149459493Y-58765156D01*
X149433686Y-58725000D01*
X150100000Y-58725000D01*
X150100000Y-58177172D01*
X150099999Y-58177155D01*
X150093598Y-58117627D01*
X150093596Y-58117620D01*
X150043354Y-57982913D01*
X150043350Y-57982906D01*
X149957190Y-57867812D01*
X149957187Y-57867809D01*
X149842093Y-57781649D01*
X149842086Y-57781645D01*
X149707379Y-57731403D01*
X149707372Y-57731401D01*
X149647844Y-57725000D01*
X149250000Y-57725000D01*
X149250000Y-58539498D01*
X149142315Y-58490320D01*
X149035763Y-58475000D01*
X148964237Y-58475000D01*
X148857685Y-58490320D01*
X148750000Y-58539498D01*
X148750000Y-57725000D01*
X148352155Y-57725000D01*
X148292627Y-57731401D01*
X148292620Y-57731403D01*
X148157913Y-57781645D01*
X148157906Y-57781649D01*
X148042812Y-57867809D01*
X148042809Y-57867812D01*
X147956649Y-57982906D01*
X147956645Y-57982913D01*
X147906403Y-58117620D01*
X147906401Y-58117627D01*
X147900000Y-58177155D01*
X147900000Y-58725000D01*
X148566314Y-58725000D01*
X148540507Y-58765156D01*
X148500000Y-58903111D01*
X148500000Y-59046889D01*
X148540507Y-59184844D01*
X148566314Y-59225000D01*
X147900000Y-59225000D01*
X147900000Y-59772844D01*
X147391822Y-59772844D01*
X147482613Y-59631572D01*
X147560725Y-59436457D01*
X147600500Y-59230085D01*
X147600500Y-58772575D01*
X147585528Y-58615782D01*
X147526316Y-58414125D01*
X147430011Y-58227318D01*
X147430009Y-58227316D01*
X147430008Y-58227313D01*
X147300094Y-58062116D01*
X147300090Y-58062112D01*
X147141253Y-57924478D01*
X146959249Y-57819398D01*
X146959245Y-57819396D01*
X146959244Y-57819396D01*
X146760633Y-57750656D01*
X146552602Y-57720746D01*
X146552598Y-57720746D01*
X146342672Y-57730745D01*
X146138421Y-57780296D01*
X146138417Y-57780298D01*
X145947256Y-57867598D01*
X145947251Y-57867601D01*
X145776046Y-57989515D01*
X145776040Y-57989520D01*
X145631014Y-58141620D01*
X145517388Y-58318425D01*
X145439274Y-58513544D01*
X145404318Y-58694915D01*
X145399500Y-58719915D01*
X145399500Y-59177425D01*
X130100000Y-59177425D01*
X130100000Y-59175000D01*
X129433686Y-59175000D01*
X129459493Y-59134844D01*
X129500000Y-58996889D01*
X129500000Y-58853111D01*
X129459493Y-58715156D01*
X129433686Y-58675000D01*
X130100000Y-58675000D01*
X130100000Y-58127172D01*
X130099999Y-58127155D01*
X130093598Y-58067627D01*
X130093596Y-58067620D01*
X130043354Y-57932913D01*
X130043350Y-57932906D01*
X129957190Y-57817812D01*
X129957187Y-57817809D01*
X129842093Y-57731649D01*
X129842086Y-57731645D01*
X129707379Y-57681403D01*
X129707372Y-57681401D01*
X129647844Y-57675000D01*
X129250000Y-57675000D01*
X129250000Y-58489498D01*
X129142315Y-58440320D01*
X129035763Y-58425000D01*
X128964237Y-58425000D01*
X128857685Y-58440320D01*
X128750000Y-58489498D01*
X128750000Y-57675000D01*
X128352155Y-57675000D01*
X128292627Y-57681401D01*
X128292620Y-57681403D01*
X128157913Y-57731645D01*
X128157906Y-57731649D01*
X128042812Y-57817809D01*
X128042809Y-57817812D01*
X127956649Y-57932906D01*
X127956645Y-57932913D01*
X127906403Y-58067620D01*
X127906401Y-58067627D01*
X127900000Y-58127155D01*
X127900000Y-58675000D01*
X128566314Y-58675000D01*
X128540507Y-58715156D01*
X128500000Y-58853111D01*
X128500000Y-58996889D01*
X128540507Y-59134844D01*
X128566314Y-59175000D01*
X127900000Y-59175000D01*
X127900000Y-59722844D01*
X127391822Y-59722844D01*
X127482613Y-59581572D01*
X127560725Y-59386457D01*
X127600500Y-59180085D01*
X127600500Y-58722575D01*
X127585528Y-58565782D01*
X127526316Y-58364125D01*
X127430011Y-58177318D01*
X127430009Y-58177316D01*
X127430008Y-58177313D01*
X127300094Y-58012116D01*
X127300090Y-58012112D01*
X127141253Y-57874478D01*
X126959249Y-57769398D01*
X126959245Y-57769396D01*
X126959244Y-57769396D01*
X126760633Y-57700656D01*
X126552602Y-57670746D01*
X126552598Y-57670746D01*
X126342672Y-57680745D01*
X126138421Y-57730296D01*
X126138417Y-57730298D01*
X125947256Y-57817598D01*
X125947251Y-57817601D01*
X125776046Y-57939515D01*
X125776040Y-57939520D01*
X125631014Y-58091620D01*
X125517388Y-58268425D01*
X125439275Y-58463543D01*
X125420860Y-58559083D01*
X125388843Y-58621185D01*
X125386782Y-58623295D01*
X125134370Y-58875708D01*
X125069784Y-58937104D01*
X125034737Y-58987456D01*
X125031900Y-58991218D01*
X124993140Y-59038754D01*
X124993137Y-59038759D01*
X124977230Y-59069209D01*
X124973162Y-59075923D01*
X124953540Y-59104116D01*
X124929347Y-59160492D01*
X124927326Y-59164746D01*
X124898929Y-59219113D01*
X124898928Y-59219114D01*
X124889478Y-59252137D01*
X124886845Y-59259533D01*
X124873297Y-59291105D01*
X124860951Y-59351181D01*
X124859828Y-59355757D01*
X124842951Y-59414739D01*
X124842951Y-59414741D01*
X124840341Y-59449003D01*
X124839252Y-59456770D01*
X124838655Y-59459680D01*
X124832338Y-59490420D01*
X124832338Y-59551759D01*
X124832159Y-59556468D01*
X124827500Y-59617636D01*
X124829276Y-59631574D01*
X124831841Y-59651722D01*
X124832338Y-59659550D01*
X124832338Y-108570121D01*
X124830081Y-108659200D01*
X124830081Y-108659208D01*
X124840902Y-108719577D01*
X124841556Y-108724242D01*
X124847763Y-108785268D01*
X124847765Y-108785282D01*
X124858046Y-108818051D01*
X124859917Y-108825675D01*
X124865980Y-108859490D01*
X124865980Y-108859493D01*
X124888732Y-108916450D01*
X124890312Y-108920889D01*
X124908679Y-108979426D01*
X124908682Y-108979433D01*
X124925347Y-109009457D01*
X124928717Y-109016552D01*
X124941460Y-109048452D01*
X124941465Y-109048462D01*
X124975215Y-109099671D01*
X124977656Y-109103701D01*
X125007426Y-109157336D01*
X125007427Y-109157337D01*
X125007429Y-109157340D01*
X125029806Y-109183405D01*
X125034531Y-109189673D01*
X125046157Y-109207313D01*
X125053436Y-109218357D01*
X125096816Y-109261737D01*
X125100007Y-109265181D01*
X125139969Y-109311730D01*
X125139972Y-109311733D01*
X125145592Y-109316083D01*
X125167132Y-109332756D01*
X125173028Y-109337949D01*
X126328419Y-110493340D01*
X126328844Y-110493686D01*
X126328911Y-110493785D01*
X126330752Y-110495448D01*
X126330354Y-110495887D01*
X126368371Y-110551298D01*
X126374500Y-110589801D01*
X126374500Y-114577562D01*
X126354815Y-114644601D01*
X126338181Y-114665243D01*
X125600208Y-115403215D01*
X125587951Y-115413036D01*
X125588134Y-115413257D01*
X125582123Y-115418229D01*
X125534772Y-115468652D01*
X125513889Y-115489535D01*
X125513877Y-115489548D01*
X125509621Y-115495033D01*
X125505837Y-115499463D01*
X125473937Y-115533434D01*
X125473936Y-115533436D01*
X125464284Y-115550992D01*
X125453610Y-115567242D01*
X125441329Y-115583077D01*
X125441324Y-115583084D01*
X125422815Y-115625854D01*
X125420245Y-115631100D01*
X125397803Y-115671922D01*
X125392822Y-115691323D01*
X125386521Y-115709726D01*
X125378562Y-115728118D01*
X125378561Y-115728121D01*
X125371271Y-115774143D01*
X125370087Y-115779862D01*
X125358501Y-115824988D01*
X125358500Y-115824998D01*
X125358500Y-115845032D01*
X125356973Y-115864431D01*
X125353840Y-115884210D01*
X125353840Y-115884211D01*
X125358225Y-115930599D01*
X125358500Y-115936437D01*
X125358500Y-131515547D01*
X125338815Y-131582586D01*
X125322181Y-131603228D01*
X125253228Y-131672181D01*
X125191905Y-131705666D01*
X125165547Y-131708500D01*
X124674640Y-131708500D01*
X124557208Y-131723336D01*
X124557206Y-131723336D01*
X124410269Y-131781513D01*
X124410260Y-131781518D01*
X124282416Y-131874402D01*
X124282415Y-131874403D01*
X124181674Y-131996178D01*
X124114387Y-132139171D01*
X124114385Y-132139174D01*
X124103149Y-132198080D01*
X124084773Y-132294412D01*
X124084773Y-132294414D01*
X124084773Y-132294415D01*
X105562853Y-132294415D01*
X105540249Y-132250992D01*
X105468470Y-132104169D01*
X105445045Y-132056252D01*
X105443494Y-132052817D01*
X105365472Y-131864457D01*
X105286680Y-131662530D01*
X105285317Y-131658658D01*
X105274839Y-131625427D01*
X105224112Y-131464544D01*
X105162257Y-131256778D01*
X105161155Y-131252526D01*
X105152459Y-131213303D01*
X105117175Y-131054145D01*
X105115156Y-131044517D01*
X105072671Y-130841894D01*
X105071883Y-130837265D01*
X105063008Y-130769854D01*
X105045489Y-130636791D01*
X105018574Y-130420865D01*
X105018160Y-130415934D01*
X105009488Y-130217318D01*
X105000606Y-130002561D01*
X105000814Y-130001723D01*
X105000500Y-129999539D01*
X105000325Y-129716872D01*
X104979361Y-95758001D01*
X119474390Y-95758001D01*
X119494804Y-96043433D01*
X119555628Y-96323037D01*
X119555630Y-96323043D01*
X119555631Y-96323046D01*
X119655633Y-96591161D01*
X119655635Y-96591166D01*
X119792770Y-96842309D01*
X119792775Y-96842317D01*
X119964254Y-97071387D01*
X119964270Y-97071405D01*
X120166594Y-97273729D01*
X120166612Y-97273745D01*
X120395682Y-97445224D01*
X120395690Y-97445229D01*
X120646833Y-97582364D01*
X120646832Y-97582364D01*
X120646836Y-97582365D01*
X120646839Y-97582367D01*
X120914954Y-97682369D01*
X120914960Y-97682370D01*
X120914962Y-97682371D01*
X121194566Y-97743195D01*
X121194568Y-97743195D01*
X121194572Y-97743196D01*
X121448220Y-97761337D01*
X121479999Y-97763610D01*
X121480000Y-97763610D01*
X121480001Y-97763610D01*
X121508595Y-97761564D01*
X121765428Y-97743196D01*
X122016403Y-97688600D01*
X122045037Y-97682371D01*
X122045037Y-97682370D01*
X122045046Y-97682369D01*
X122313161Y-97582367D01*
X122564315Y-97445226D01*
X122793395Y-97273739D01*
X122995739Y-97071395D01*
X123167226Y-96842315D01*
X123304367Y-96591161D01*
X123404369Y-96323046D01*
X123465196Y-96043428D01*
X123485610Y-95758000D01*
X123465196Y-95472572D01*
X123453973Y-95420982D01*
X123404371Y-95192962D01*
X123404370Y-95192960D01*
X123404369Y-95192954D01*
X123304367Y-94924839D01*
X123296051Y-94909610D01*
X123167229Y-94673690D01*
X123167224Y-94673682D01*
X122995745Y-94444612D01*
X122995729Y-94444594D01*
X122793405Y-94242270D01*
X122793387Y-94242254D01*
X122564317Y-94070775D01*
X122564309Y-94070770D01*
X122313166Y-93933635D01*
X122313167Y-93933635D01*
X122138533Y-93868500D01*
X122045046Y-93833631D01*
X122045043Y-93833630D01*
X122045037Y-93833628D01*
X121765433Y-93772804D01*
X121480001Y-93752390D01*
X121479999Y-93752390D01*
X121194566Y-93772804D01*
X120914962Y-93833628D01*
X120646833Y-93933635D01*
X120395690Y-94070770D01*
X120395682Y-94070775D01*
X120166612Y-94242254D01*
X120166594Y-94242270D01*
X119964270Y-94444594D01*
X119964254Y-94444612D01*
X119792775Y-94673682D01*
X119792770Y-94673690D01*
X119655635Y-94924833D01*
X119555628Y-95192962D01*
X119494804Y-95472566D01*
X119474390Y-95757998D01*
X119474390Y-95758001D01*
X104979361Y-95758001D01*
X104967148Y-75974678D01*
X119479500Y-75974678D01*
X119494032Y-76047735D01*
X119494033Y-76047739D01*
X119494034Y-76047740D01*
X119549399Y-76130601D01*
X119632260Y-76185966D01*
X119632264Y-76185967D01*
X119705321Y-76200499D01*
X119705324Y-76200500D01*
X119705326Y-76200500D01*
X123254676Y-76200500D01*
X123254677Y-76200499D01*
X123327740Y-76185966D01*
X123410601Y-76130601D01*
X123465966Y-76047740D01*
X123480500Y-75974674D01*
X123480500Y-72425326D01*
X123480500Y-72425323D01*
X123480499Y-72425321D01*
X123465967Y-72352264D01*
X123465966Y-72352260D01*
X123464122Y-72349500D01*
X123410601Y-72269399D01*
X123327740Y-72214034D01*
X123327739Y-72214033D01*
X123327735Y-72214032D01*
X123254677Y-72199500D01*
X123254674Y-72199500D01*
X119705326Y-72199500D01*
X119705323Y-72199500D01*
X119632264Y-72214032D01*
X119632260Y-72214033D01*
X119549399Y-72269399D01*
X119494033Y-72352260D01*
X119494032Y-72352264D01*
X119479500Y-72425321D01*
X119479500Y-75974678D01*
X104967148Y-75974678D01*
X104957243Y-59929184D01*
X104966250Y-59712322D01*
X104975095Y-59510584D01*
X104975509Y-59505669D01*
X105002648Y-59288864D01*
X105029382Y-59086652D01*
X105030170Y-59082051D01*
X105075124Y-58868569D01*
X105119588Y-58668868D01*
X105120685Y-58664658D01*
X105183162Y-58455726D01*
X105245037Y-58260349D01*
X105246384Y-58256544D01*
X105326010Y-58053413D01*
X105404817Y-57864036D01*
X105406361Y-57860630D01*
X105502587Y-57664739D01*
X105597752Y-57482820D01*
X105599452Y-57479787D01*
X105711632Y-57292480D01*
X105807808Y-57142300D01*
X105822435Y-57119458D01*
X105824262Y-57116765D01*
X105951639Y-56939335D01*
X106077259Y-56776546D01*
X106079098Y-56774278D01*
X106220860Y-56607890D01*
X106361233Y-56455648D01*
X106517334Y-56300566D01*
X106670511Y-56161176D01*
X106837805Y-56020522D01*
X106840079Y-56018703D01*
X107003699Y-55894142D01*
X107181980Y-55767917D01*
X107184630Y-55766144D01*
X107358399Y-55656459D01*
X107546426Y-55545514D01*
X107549470Y-55543834D01*
X107732020Y-55449856D01*
X107928533Y-55354917D01*
X107931957Y-55353392D01*
X108121880Y-55275813D01*
X108325475Y-55197540D01*
X108329308Y-55196211D01*
X108525119Y-55135606D01*
X108734421Y-55074509D01*
X108738641Y-55073439D01*
X108938657Y-55030278D01*
X109152412Y-54986725D01*
X109156990Y-54985974D01*
X109359539Y-54960544D01*
X109576351Y-54934845D01*
X109581284Y-54934461D01*
X109783326Y-54926928D01*
X109999968Y-54919351D01*
X109999999Y-54919351D01*
X110000497Y-54919354D01*
G37*
G04 #@! TD.AperFunction*
G04 #@! TA.AperFunction,Conductor*
G36*
X196030617Y-71647917D02*
G01*
X196076585Y-71700535D01*
X196088000Y-71752503D01*
X196088000Y-80140615D01*
X196068315Y-80207654D01*
X196015511Y-80253409D01*
X195964617Y-80264613D01*
X145034000Y-80517999D01*
X145033999Y-80518000D01*
X144779999Y-113791997D01*
X144780000Y-113792000D01*
X145288000Y-114300000D01*
X147704000Y-114300000D01*
X147771039Y-114319685D01*
X147816794Y-114372489D01*
X147828000Y-114424000D01*
X147828000Y-114804362D01*
X147808315Y-114871401D01*
X147755511Y-114917156D01*
X147686353Y-114927100D01*
X147674329Y-114924760D01*
X147652986Y-114919500D01*
X147652985Y-114919500D01*
X147495015Y-114919500D01*
X147495014Y-114919500D01*
X147341634Y-114957303D01*
X147201766Y-115030712D01*
X147201762Y-115030715D01*
X147201760Y-115030717D01*
X147193181Y-115038316D01*
X147129950Y-115068037D01*
X147110956Y-115069500D01*
X138942676Y-115069500D01*
X138875637Y-115049815D01*
X138854995Y-115033181D01*
X137330274Y-113508460D01*
X137296789Y-113447137D01*
X137294859Y-113435724D01*
X137288237Y-113381181D01*
X137251381Y-113284000D01*
X137232220Y-113233477D01*
X137142483Y-113103470D01*
X137024240Y-112998717D01*
X137024238Y-112998716D01*
X137024237Y-112998715D01*
X136884365Y-112925303D01*
X136730986Y-112887500D01*
X136730985Y-112887500D01*
X136573015Y-112887500D01*
X136573014Y-112887500D01*
X136419634Y-112925303D01*
X136279762Y-112998715D01*
X136161516Y-113103471D01*
X136071781Y-113233475D01*
X136071780Y-113233476D01*
X136015762Y-113381181D01*
X135996722Y-113537999D01*
X135996722Y-113538000D01*
X136015762Y-113694818D01*
X136040755Y-113760717D01*
X136071780Y-113842523D01*
X136161517Y-113972530D01*
X136279760Y-114077283D01*
X136279762Y-114077284D01*
X136419634Y-114150696D01*
X136419633Y-114150696D01*
X136568211Y-114187316D01*
X136626218Y-114220032D01*
X138282614Y-115876428D01*
X138299246Y-115897066D01*
X138301854Y-115901125D01*
X138301857Y-115901128D01*
X138341067Y-115935103D01*
X138344283Y-115938097D01*
X138355407Y-115949221D01*
X138355412Y-115949224D01*
X138355417Y-115949229D01*
X138367979Y-115958633D01*
X138371427Y-115961411D01*
X138401947Y-115987856D01*
X138410627Y-115995377D01*
X138415010Y-115997379D01*
X138437807Y-116010905D01*
X138441669Y-116013796D01*
X138490295Y-116031932D01*
X138494351Y-116033612D01*
X138516457Y-116043708D01*
X138541540Y-116055164D01*
X138541541Y-116055164D01*
X138541543Y-116055165D01*
X138546312Y-116055850D01*
X138572002Y-116062407D01*
X138576517Y-116064091D01*
X138628258Y-116067791D01*
X138632657Y-116068264D01*
X138648201Y-116070500D01*
X138663906Y-116070500D01*
X138668328Y-116070657D01*
X138720073Y-116074359D01*
X138724785Y-116073334D01*
X138751143Y-116070500D01*
X147110956Y-116070500D01*
X147177995Y-116090185D01*
X147193179Y-116101681D01*
X147201760Y-116109283D01*
X147201762Y-116109284D01*
X147201766Y-116109287D01*
X147341634Y-116182696D01*
X147495014Y-116220500D01*
X147495015Y-116220500D01*
X147652985Y-116220500D01*
X147674325Y-116215240D01*
X147744127Y-116218309D01*
X147801189Y-116258629D01*
X147827395Y-116323398D01*
X147828000Y-116335637D01*
X147828000Y-118240000D01*
X147808315Y-118307039D01*
X147755511Y-118352794D01*
X147704000Y-118364000D01*
X136776000Y-118364000D01*
X136708961Y-118344315D01*
X136663206Y-118291511D01*
X136652000Y-118240000D01*
X136652000Y-117094000D01*
X135890000Y-116332000D01*
X133474000Y-116332000D01*
X133406961Y-116312315D01*
X133361206Y-116259511D01*
X133350000Y-116208000D01*
X133350000Y-100409176D01*
X133369685Y-100342137D01*
X133386319Y-100321495D01*
X133920995Y-99786819D01*
X133982318Y-99753334D01*
X134008676Y-99750500D01*
X143286956Y-99750500D01*
X143353995Y-99770185D01*
X143369179Y-99781681D01*
X143377760Y-99789283D01*
X143377762Y-99789284D01*
X143377766Y-99789287D01*
X143517634Y-99862696D01*
X143671014Y-99900500D01*
X143671015Y-99900500D01*
X143828985Y-99900500D01*
X143982365Y-99862696D01*
X144122240Y-99789283D01*
X144240483Y-99684530D01*
X144330220Y-99554523D01*
X144386237Y-99406818D01*
X144405278Y-99250000D01*
X144386237Y-99093182D01*
X144381381Y-99080379D01*
X144355432Y-99011957D01*
X144330220Y-98945477D01*
X144240483Y-98815470D01*
X144122240Y-98710717D01*
X144122238Y-98710716D01*
X144122237Y-98710715D01*
X143982366Y-98637304D01*
X143920769Y-98622122D01*
X143860388Y-98586966D01*
X143828600Y-98524746D01*
X143835496Y-98455218D01*
X143878887Y-98400455D01*
X143920770Y-98381328D01*
X143996365Y-98362696D01*
X144060027Y-98329283D01*
X144136240Y-98289283D01*
X144254483Y-98184530D01*
X144344220Y-98054523D01*
X144400237Y-97906818D01*
X144419278Y-97750000D01*
X144410597Y-97678500D01*
X144400237Y-97593181D01*
X144345776Y-97449581D01*
X144344220Y-97445477D01*
X144254483Y-97315470D01*
X144136240Y-97210717D01*
X144136238Y-97210716D01*
X144136237Y-97210715D01*
X143996365Y-97137303D01*
X143842986Y-97099500D01*
X143842985Y-97099500D01*
X143685015Y-97099500D01*
X143685014Y-97099500D01*
X143531634Y-97137303D01*
X143391762Y-97210715D01*
X143273516Y-97315470D01*
X143271089Y-97318987D01*
X143269742Y-97320938D01*
X143215463Y-97364929D01*
X143167692Y-97374500D01*
X134203803Y-97374500D01*
X134178358Y-97371861D01*
X134167732Y-97369633D01*
X134167729Y-97369633D01*
X134132507Y-97374023D01*
X134124831Y-97374500D01*
X134120886Y-97374500D01*
X134111631Y-97376044D01*
X134097856Y-97378342D01*
X134079696Y-97380606D01*
X134043375Y-97385134D01*
X134043371Y-97385135D01*
X134035842Y-97387377D01*
X134028383Y-97389937D01*
X133980118Y-97416058D01*
X133930791Y-97440172D01*
X133924381Y-97444748D01*
X133918175Y-97449579D01*
X133880991Y-97489971D01*
X133561681Y-97809280D01*
X133500358Y-97842765D01*
X133430666Y-97837781D01*
X133374733Y-97795909D01*
X133350316Y-97730445D01*
X133350000Y-97721599D01*
X133350000Y-74267763D01*
X183880787Y-74267763D01*
X183910413Y-74537013D01*
X183910415Y-74537024D01*
X183978926Y-74799082D01*
X183978928Y-74799088D01*
X184084870Y-75048390D01*
X184156998Y-75166575D01*
X184225979Y-75279605D01*
X184225986Y-75279615D01*
X184399253Y-75487819D01*
X184399259Y-75487824D01*
X184600998Y-75668582D01*
X184826910Y-75818044D01*
X185072176Y-75933020D01*
X185072183Y-75933022D01*
X185072185Y-75933023D01*
X185331557Y-76011057D01*
X185331564Y-76011058D01*
X185331569Y-76011060D01*
X185599561Y-76050500D01*
X185599566Y-76050500D01*
X185802636Y-76050500D01*
X185854133Y-76046730D01*
X186005156Y-76035677D01*
X186117758Y-76010593D01*
X186269546Y-75976782D01*
X186269548Y-75976781D01*
X186269553Y-75976780D01*
X186522558Y-75880014D01*
X186758777Y-75747441D01*
X186973177Y-75581888D01*
X187161186Y-75386881D01*
X187318799Y-75166579D01*
X187392787Y-75022669D01*
X187442649Y-74925690D01*
X187442651Y-74925684D01*
X187442656Y-74925675D01*
X187530118Y-74669305D01*
X187579319Y-74402933D01*
X187589212Y-74132235D01*
X187559586Y-73862982D01*
X187491072Y-73600912D01*
X187385130Y-73351610D01*
X187244018Y-73120390D01*
X187154747Y-73013119D01*
X187070746Y-72912180D01*
X187070740Y-72912175D01*
X186869002Y-72731418D01*
X186643092Y-72581957D01*
X186643090Y-72581956D01*
X186397824Y-72466980D01*
X186397819Y-72466978D01*
X186397814Y-72466976D01*
X186138442Y-72388942D01*
X186138428Y-72388939D01*
X186022791Y-72371921D01*
X185870439Y-72349500D01*
X185667369Y-72349500D01*
X185667364Y-72349500D01*
X185464844Y-72364323D01*
X185464831Y-72364325D01*
X185200453Y-72423217D01*
X185200446Y-72423220D01*
X184947439Y-72519987D01*
X184711226Y-72652557D01*
X184496822Y-72818112D01*
X184308822Y-73013109D01*
X184308816Y-73013116D01*
X184151202Y-73233419D01*
X184151199Y-73233424D01*
X184027350Y-73474309D01*
X184027343Y-73474327D01*
X183939884Y-73730685D01*
X183939881Y-73730699D01*
X183890681Y-73997068D01*
X183890680Y-73997075D01*
X183880787Y-74267763D01*
X133350000Y-74267763D01*
X133350000Y-72005499D01*
X133369685Y-71938460D01*
X133422489Y-71892705D01*
X133473497Y-71881500D01*
X195963498Y-71628504D01*
X196030617Y-71647917D01*
G37*
G04 #@! TD.AperFunction*
M02*
