M48
; DRILL file {KiCad 7.0.9} date Thu Apr 18 23:25:55 2024
; FORMAT={-:-/ absolute / inch / decimal}
; #@! TF.CreationDate,2024-04-18T23:25:55+05:30
; #@! TF.GenerationSoftware,Kicad,Pcbnew,7.0.9
; #@! TF.FileFunction,Plated,1,2,PTH
FMAT,2
INCH
; #@! TA.AperFunction,Plated,PTH,ViaDrill
T1C0.0120
; #@! TA.AperFunction,Plated,PTH,ViaDrill
T2C0.0157
; #@! TA.AperFunction,Plated,PTH,ComponentDrill
T3C0.0394
; #@! TA.AperFunction,Plated,PTH,ComponentDrill
T4C0.0787
; #@! TA.AperFunction,Plated,PTH,ViaDrill
T5C0.0984
%
G90
G05
T1
X4.5669Y-4.4291
X4.62Y-4.5
X4.626Y-4.4488
X4.85Y-5.03
X4.91Y-5.21
X5.02Y-5.29
X5.04Y-4.38
X5.04Y-4.71
X5.05Y-5.04
X5.08Y-4.9
X5.09Y-5.05
X5.09Y-5.2
X5.11Y-4.5
X5.11Y-4.67
X5.15Y-4.53
X5.17Y-4.66
X5.17Y-5.19
X5.22Y-5.04
X5.23Y-4.6
X5.23Y-4.83
X5.23Y-4.89
X5.27Y-5.02
X5.29Y-5.06
X5.3Y-4.63
X5.34Y-5.01
X5.35Y-4.64
X5.51Y-4.69
X5.51Y-4.74
X5.51Y-4.79
X6.92Y-4.37
X7.3Y-4.35
X7.42Y-4.34
T2
X4.26Y-2.64
X4.27Y-4.06
X4.28Y-3.13
X4.28Y-4.21
X4.28Y-4.87
X4.29Y-2.92
X4.29Y-3.32
X4.31Y-4.61
X4.32Y-3.53
X4.34Y-2.76
X4.35Y-4.52
X4.37Y-3.19
X4.4Y-4.39
X4.41Y-2.63
X4.41Y-4.06
X4.45Y-3.01
X4.45Y-4.79
X4.46Y-3.5
X4.52Y-4.18
X4.53Y-5.04
X4.54Y-2.3
X4.56Y-5.25
X4.5669Y-4.5079
X4.58Y-5.0
X4.5866Y-4.4587
X4.5965Y-3.0413
X4.5984Y-2.437
X4.6Y-5.14
X4.6003Y-2.5629
X4.6048Y-3.9519
X4.6063Y-2.8543
X4.6063Y-3.2776
X4.6063Y-3.75
X4.6284Y-4.7523
X4.6358Y-3.4449
X4.6388Y-4.088
X4.65Y-4.34
X4.6641Y-2.7363
X4.69Y-4.71
X4.6949Y-3.6516
X4.7Y-3.1
X4.71Y-5.21
X4.73Y-5.1
X4.7617Y-3.9428
X4.77Y-2.36
X4.77Y-4.75
X4.772Y-4.1464
X4.7992Y-2.5428
X4.8Y-5.27
X4.82Y-5.08
X4.8247Y-2.2527
X4.8327Y-2.6476
X4.8412Y-4.7085
X4.8425Y-4.065
X4.8448Y-2.7928
X4.8511Y-3.9026
X4.863Y-3.0647
X4.8703Y-2.4863
X4.88Y-3.25
X4.88Y-3.46
X4.88Y-3.64
X4.88Y-5.25
X4.92Y-4.75
X4.9306Y-2.2454
X4.96Y-5.25
X5.0Y-4.3209
X5.0072Y-2.4206
X5.0138Y-4.243
X5.0565Y-3.0647
X5.0665Y-4.1453
X5.0769Y-3.589
X5.0787Y-2.1949
X5.0875Y-2.6706
X5.0884Y-4.0431
X5.0951Y-3.4686
X5.1006Y-3.1492
X5.11Y-5.29
X5.128Y-3.3169
X5.1476Y-4.0945
X5.1575Y-4.2421
X5.17Y-4.73
X5.1897Y-2.2217
X5.2Y-2.31
X5.2043Y-2.5191
X5.2067Y-4.1929
X5.21Y-4.5
X5.2116Y-2.6852
X5.2144Y-4.5448
X5.215Y-4.4335
X5.2156Y-2.4215
X5.2183Y-4.3367
X5.2189Y-4.3869
X5.22Y-4.71
X5.23Y-4.95
X5.24Y-5.29
X5.26Y-2.26
X5.27Y-4.69
X5.27Y-4.76
X5.27Y-4.92
X5.28Y-3.98
X5.28Y-4.36
X5.28Y-4.43
X5.28Y-5.13
X5.28Y-5.2
X5.29Y-2.88
X5.29Y-4.49
X5.29Y-4.55
X5.3Y-2.44
X5.3Y-3.7
X5.3Y-3.77
X5.31Y-3.51
X5.32Y-3.03
X5.32Y-3.18
X5.32Y-3.43
X5.32Y-4.95
X5.33Y-2.2
X5.33Y-4.08
X5.33Y-4.21
X5.33Y-4.51
X5.33Y-4.89
X5.33Y-5.19
X5.35Y-2.45
X5.35Y-4.69
X5.35Y-5.15
X5.36Y-4.78
X5.36Y-5.07
X5.37Y-2.26
X5.37Y-2.39
X5.37Y-5.29
X5.38Y-3.98
X5.38Y-4.47
X5.38Y-4.93
X5.38Y-5.2
X5.39Y-3.62
X5.39Y-4.56
X5.39Y-5.0
X5.3918Y-2.1892
X5.4Y-5.15
X5.4086Y-2.6763
X5.41Y-4.19
X5.41Y-4.31
X5.42Y-2.43
X5.42Y-4.62
X5.42Y-5.11
X5.4214Y-2.5321
X5.43Y-3.77
X5.44Y-2.88
X5.44Y-3.29
X5.44Y-3.56
X5.44Y-4.72
X5.44Y-4.86
X5.44Y-4.97
X5.44Y-5.2
X5.45Y-3.04
X5.45Y-4.08
X5.45Y-4.59
X5.45Y-4.92
X5.46Y-3.66
X5.46Y-4.37
X5.47Y-4.63
X5.47Y-5.13
X5.48Y-2.22
X5.48Y-5.02
X5.49Y-2.44
X5.49Y-4.27
X5.49Y-4.96
X5.5Y-3.26
X5.5Y-5.19
X5.51Y-2.66
X5.51Y-3.15
X5.51Y-3.98
X5.51Y-4.14
X5.51Y-4.35
X5.51Y-5.29
X5.52Y-2.26
X5.52Y-3.47
X5.52Y-4.43
X5.52Y-4.49
X5.52Y-5.14
X5.5351Y-2.1908
X5.54Y-3.65
X5.54Y-5.07
X5.55Y-3.77
X5.55Y-4.06
X5.56Y-2.44
X5.56Y-4.59
X5.5654Y-4.6335
X5.57Y-4.49
X5.57Y-5.0
X5.58Y-3.22
X5.5853Y-5.1183
X5.59Y-2.88
X5.5906Y-2.5295
X5.5995Y-2.2809
X5.6Y-3.57
X5.61Y-3.02
X5.62Y-4.49
X5.62Y-4.7
X5.63Y-2.37
X5.63Y-2.44
X5.63Y-4.74
X5.64Y-4.78
X5.65Y-2.71
X5.65Y-4.59
X5.6594Y-3.9075
X5.66Y-3.8484
X5.66Y-5.01
X5.67Y-4.0
X5.67Y-4.08
X5.67Y-4.13
X5.67Y-4.18
X5.67Y-4.24
X5.67Y-4.29
X5.67Y-4.49
X5.68Y-2.41
X5.68Y-2.89
X5.68Y-5.05
X5.68Y-5.23
X5.68Y-5.28
X5.6989Y-2.2831
X5.7Y-4.88
X5.7173Y-2.3875
X5.72Y-4.97
X5.72Y-5.19
X5.7283Y-2.6476
X5.7349Y-4.8338
X5.74Y-4.74
X5.75Y-2.89
X5.75Y-4.31
X5.75Y-4.41
X5.75Y-5.06
X5.76Y-3.73
X5.7677Y-3.5925
X5.7677Y-3.8681
X5.77Y-4.92
X5.77Y-4.99
X5.78Y-4.83
X5.78Y-5.28
X5.7862Y-3.8076
X5.79Y-4.46
X5.7954Y-3.2262
X5.7957Y-2.4032
X5.7972Y-4.2323
X5.8Y-3.02
X5.81Y-4.55
X5.81Y-5.17
X5.8169Y-2.5197
X5.8169Y-3.4744
X5.83Y-4.7
X5.83Y-4.74
X5.83Y-4.78
X5.83Y-5.05
X5.84Y-3.33
X5.84Y-4.99
X5.84Y-5.22
X5.85Y-4.3
X5.85Y-4.93
X5.8574Y-4.0831
X5.86Y-2.41
X5.86Y-4.47
X5.8661Y-2.687
X5.87Y-4.38
X5.8702Y-3.9408
X5.88Y-2.91
X5.88Y-3.09
X5.88Y-4.03
X5.8858Y-3.7992
X5.89Y-3.03
X5.89Y-5.05
X5.89Y-5.27
X5.8923Y-4.8702
X5.9Y-4.93
X5.9Y-4.99
X5.91Y-3.67
X5.91Y-4.76
X5.91Y-5.16
X5.9104Y-3.552
X5.9115Y-4.8298
X5.92Y-4.47
X5.9252Y-3.2382
X5.9255Y-2.4113
X5.93Y-4.55
X5.9334Y-2.2806
X5.9405Y-4.6128
X5.9469Y-4.7234
X5.95Y-2.35
X5.95Y-3.44
X5.95Y-4.35
X5.95Y-4.66
X5.96Y-3.73
X5.97Y-5.28
X5.98Y-4.59
X5.99Y-2.32
X5.99Y-2.65
X5.99Y-4.05
X5.99Y-4.5
X6.0Y-4.41
X6.01Y-3.33
X6.01Y-4.14
X6.01Y-4.29
X6.02Y-2.28
X6.02Y-2.36
X6.02Y-2.46
X6.02Y-3.54
X6.02Y-3.97
X6.02Y-5.2
X6.0228Y-4.549
X6.0398Y-5.2799
X6.0433Y-3.7894
X6.06Y-4.34
X6.07Y-2.26
X6.07Y-4.59
X6.08Y-4.39
X6.08Y-4.46
X6.08Y-5.21
X6.0882Y-3.2406
X6.0882Y-3.6006
X6.09Y-2.75
X6.0958Y-4.6291
X6.0986Y-4.7419
X6.1019Y-3.4309
X6.1044Y-4.107
X6.11Y-3.85
X6.11Y-4.34
X6.11Y-5.25
X6.1122Y-3.9665
X6.12Y-2.45
X6.12Y-3.03
X6.1277Y-4.683
X6.13Y-2.87
X6.13Y-4.44
X6.1319Y-2.5984
X6.1383Y-4.537
X6.14Y-4.6
X6.14Y-4.64
X6.1409Y-3.7335
X6.15Y-4.99
X6.1544Y-5.08
X6.17Y-2.4
X6.17Y-2.96
X6.17Y-3.11
X6.17Y-4.29
X6.17Y-4.55
X6.18Y-2.25
X6.18Y-4.37
X6.18Y-4.45
X6.1851Y-4.6447
X6.1883Y-3.8381
X6.2Y-5.28
X6.23Y-5.03
X6.2532Y-5.2487
X6.28Y-4.87
X6.3Y-2.27
X6.31Y-5.26
X6.32Y-4.95
X6.3376Y-4.0814
X6.34Y-2.89
X6.34Y-2.98
X6.34Y-3.06
X6.34Y-3.12
X6.34Y-3.79
X6.34Y-4.42
X6.34Y-4.71
X6.3479Y-4.2987
X6.35Y-3.72
X6.35Y-4.64
X6.3552Y-4.1849
X6.3583Y-3.1988
X6.36Y-3.86
X6.36Y-3.98
X6.36Y-4.84
X6.36Y-5.19
X6.3674Y-2.6822
X6.37Y-2.38
X6.37Y-2.48
X6.39Y-4.54
X6.4Y-4.64
X6.4Y-5.27
X6.4057Y-2.4276
X6.41Y-3.08
X6.41Y-4.77
X6.41Y-4.89
X6.42Y-5.21
X6.43Y-2.95
X6.45Y-2.5727
X6.45Y-4.84
X6.4577Y-2.2606
X6.46Y-4.64
X6.4681Y-3.9488
X6.48Y-4.36
X6.4839Y-4.1873
X6.4851Y-3.4638
X6.49Y-4.31
X6.49Y-4.89
X6.5Y-4.74
X6.5143Y-4.0839
X6.52Y-2.25
X6.52Y-4.39
X6.52Y-4.64
X6.52Y-5.26
X6.53Y-2.31
X6.53Y-4.33
X6.53Y-4.84
X6.54Y-4.53
X6.55Y-5.08
X6.5551Y-3.8189
X6.5645Y-3.1968
X6.5672Y-3.6198
X6.57Y-2.42
X6.57Y-5.02
X6.58Y-2.59
X6.58Y-2.76
X6.58Y-2.87
X6.58Y-2.95
X6.58Y-3.02
X6.58Y-3.09
X6.58Y-4.38
X6.58Y-4.44
X6.58Y-4.64
X6.58Y-4.89
X6.59Y-2.7
X6.6Y-4.53
X6.6Y-4.77
X6.6Y-4.84
X6.62Y-2.23
X6.63Y-4.64
X6.63Y-4.71
X6.64Y-5.06
X6.66Y-4.94
X6.67Y-4.53
X6.68Y-5.24
X6.7Y-4.35
X6.7028Y-4.1043
X6.71Y-4.76
X6.72Y-2.88
X6.72Y-2.94
X6.72Y-3.01
X6.72Y-3.1
X6.73Y-4.53
X6.7327Y-3.7879
X6.7397Y-2.2251
X6.74Y-5.14
X6.7421Y-2.6772
X6.7451Y-2.4167
X6.7519Y-3.9001
X6.7526Y-3.4506
X6.7546Y-4.0343
X6.76Y-3.08
X6.76Y-4.96
X6.764Y-4.4809
X6.7668Y-4.3014
X6.78Y-4.8
X6.78Y-4.86
X6.78Y-4.99
X6.7854Y-3.2645
X6.79Y-4.65
X6.79Y-5.29
X6.7913Y-4.3701
X6.8Y-4.43
X6.8Y-4.53
X6.8022Y-4.9465
X6.81Y-2.94
X6.821Y-3.6093
X6.83Y-2.5727
X6.8355Y-2.4194
X6.8394Y-3.9549
X6.84Y-4.48
X6.85Y-5.1511
X6.85Y-5.04
X6.85Y-5.11
X6.85Y-5.19
X6.8515Y-5.0754
X6.86Y-4.31
X6.86Y-4.63
X6.8668Y-4.1027
X6.875Y-3.7879
X6.8793Y-2.2962
X6.88Y-3.04
X6.88Y-4.53
X6.8894Y-3.4643
X6.9Y-2.91
X6.9094Y-2.7067
X6.9094Y-3.2185
X6.9192Y-4.1701
X6.9298Y-3.9166
X6.95Y-4.28
X6.95Y-4.85
X6.96Y-4.33
X6.96Y-4.52
X6.97Y-4.72
X6.97Y-4.82
X6.9733Y-4.9453
X6.98Y-5.26
X7.0098Y-2.2106
X7.01Y-4.83
X7.03Y-5.17
X7.04Y-4.48
X7.0467Y-4.9076
X7.05Y-2.86
X7.05Y-5.08
X7.0563Y-3.7799
X7.0591Y-2.5062
X7.06Y-3.06
X7.06Y-3.12
X7.06Y-4.33
X7.06Y-4.41
X7.06Y-5.26
X7.0645Y-4.1796
X7.0672Y-4.0427
X7.0673Y-2.2024
X7.0673Y-3.4396
X7.07Y-2.98
X7.08Y-4.68
X7.081Y-2.7225
X7.0864Y-3.873
X7.0865Y-3.6203
X7.1Y-2.91
X7.11Y-3.06
X7.12Y-4.12
X7.12Y-4.31
X7.1248Y-3.2234
X7.126Y-2.628
X7.13Y-2.86
X7.1385Y-3.519
X7.14Y-3.02
X7.14Y-3.12
X7.1439Y-3.9661
X7.1457Y-2.4606
X7.1466Y-3.7772
X7.1494Y-2.2298
X7.15Y-5.17
X7.17Y-4.39
X7.17Y-4.67
X7.1989Y-5.0149
X7.2Y-4.46
X7.2Y-5.11
X7.2077Y-4.2826
X7.21Y-4.33
X7.22Y-2.99
X7.22Y-3.13
X7.23Y-2.86
X7.23Y-5.27
X7.25Y-4.67
X7.25Y-4.75
X7.25Y-4.8
X7.25Y-4.84
X7.25Y-4.88
X7.26Y-3.08
X7.2636Y-4.3504
X7.2696Y-2.3164
X7.2741Y-2.1942
X7.2745Y-2.4125
X7.2758Y-3.5148
X7.2794Y-2.4989
X7.2794Y-2.5999
X7.28Y-4.53
X7.28Y-4.92
X7.28Y-5.18
X7.287Y-2.2778
X7.29Y-4.76
X7.29Y-4.8
X7.29Y-4.84
X7.29Y-4.88
X7.2933Y-4.2126
X7.3026Y-4.0537
X7.305Y-3.3761
X7.3108Y-3.9086
X7.32Y-3.04
X7.32Y-3.11
X7.3217Y-5.021
X7.3269Y-2.6936
X7.33Y-4.66
X7.336Y-3.2283
X7.3425Y-2.1949
X7.3579Y-3.5458
X7.36Y-5.1
X7.3683Y-3.9934
X7.37Y-4.95
X7.37Y-5.2
X7.3765Y-4.2097
X7.378Y-3.4126
X7.3791Y-4.6347
X7.38Y-3.08
X7.38Y-4.48
X7.3861Y-4.6964
X7.3996Y-5.0076
X7.4Y-2.99
X7.41Y-2.86
X7.41Y-3.13
X7.4114Y-2.5886
X7.43Y-5.13
X7.4301Y-2.4115
X7.4403Y-2.1902
X7.45Y-4.75
X7.45Y-4.81
X7.45Y-4.86
X7.45Y-4.91
X7.46Y-4.41
X7.5036Y-3.922
X7.51Y-2.93
X7.51Y-3.74
X7.51Y-3.82
X7.5239Y-2.2056
X7.5258Y-2.6855
X7.5271Y-2.298
X7.53Y-2.86
X7.53Y-3.1
X7.53Y-5.11
X7.53Y-5.25
X7.5356Y-3.8728
X7.5394Y-2.4213
X7.54Y-3.02
X7.54Y-4.8
X7.54Y-5.02
X7.54Y-2.5177
X7.55Y-4.6
X7.5605Y-3.2503
X7.5605Y-3.3963
X7.5641Y-3.5222
X7.58Y-3.11
X7.59Y-3.04
X7.6Y-4.53
X7.6173Y-4.7242
X7.6181Y-2.5787
X7.6198Y-4.931
X7.6236Y-2.2056
X7.64Y-2.31
X7.65Y-4.85
X7.6573Y-3.9178
X7.6673Y-2.6772
X7.67Y-3.04
X7.6716Y-4.5856
X7.68Y-3.11
X7.6809Y-3.5898
X7.6896Y-4.0598
X7.69Y-2.85
X7.7Y-4.3
X7.7109Y-2.5183
X7.7138Y-3.3106
X7.72Y-2.37
X7.7341Y-4.712
X7.7503Y-3.4584
X7.7539Y-3.1956
X7.7559Y-4.5768
X7.7566Y-4.916
X7.7704Y-3.9251
X7.7758Y-3.8215
X7.7776Y-3.6317
X7.79Y-5.16
X7.8046Y-4.0598
X7.8051Y-2.687
X7.8271Y-2.4869
X7.84Y-2.26
X7.86Y-4.92
X7.87Y-4.35
X7.89Y-3.09
X7.91Y-2.93
X7.91Y-3.35
X7.91Y-3.91
X7.92Y-3.65
X7.93Y-2.73
X7.93Y-3.46
X7.93Y-5.25
X7.94Y-2.5
X7.94Y-4.65
X7.95Y-3.2
X7.96Y-4.06
X7.96Y-4.2
X7.96Y-4.93
X7.97Y-4.37
X7.98Y-3.07
X8.03Y-2.61
X8.03Y-2.81
X8.04Y-3.41
X8.04Y-4.71
X8.08Y-4.06
X8.08Y-4.55
X8.09Y-2.65
X8.09Y-3.6
X8.1Y-4.26
X8.11Y-4.82
X8.12Y-3.32
X8.14Y-3.05
X8.14Y-3.17
X8.15Y-3.48
X8.17Y-2.84
X8.17Y-4.69
X8.21Y-2.58
X8.21Y-4.97
X8.22Y-3.97
T3
X4.9803Y-2.3199
X5.0787Y-2.3199
X5.7677Y-2.3219
X5.8661Y-2.3219
X6.1417Y-2.3209
X6.2402Y-2.3209
X6.6516Y-2.3215
X6.75Y-2.3215
X6.998Y-2.3199
X7.0965Y-2.3199
X7.3445Y-2.3199
X7.4429Y-2.3199
T4
X4.7827Y-2.9213
X4.7827Y-3.77
X7.6173Y-2.9213
X7.6173Y-3.77
T5
X4.33Y-2.38
X4.33Y-3.77
X4.33Y-5.1181
X8.09Y-2.38
X8.09Y-3.77
X8.09Y-5.1181
T0
M30
